<?xml version="1.0" encoding="UTF-8" standalone="no"?>
<svg
   xmlns:dc="http://purl.org/dc/elements/1.1/"
   xmlns:cc="http://creativecommons.org/ns#"
   xmlns:rdf="http://www.w3.org/1999/02/22-rdf-syntax-ns#"
   xmlns:svg="http://www.w3.org/2000/svg"
   xmlns="http://www.w3.org/2000/svg"
   viewBox="0 0 666.66669 518.97333"
   height="518.97333"
   width="666.66669"
   xml:space="preserve"
   id="svg2"
   version="1.1"><metadata
     id="metadata8"><rdf:RDF><cc:Work
         rdf:about=""><dc:format>image/svg+xml</dc:format><dc:type
           rdf:resource="http://purl.org/dc/dcmitype/StillImage" /></cc:Work></rdf:RDF></metadata><defs
     id="defs6" /><g
     transform="matrix(1.3333333,0,0,-1.3333333,0,518.97333)"
     id="g10"><g
       transform="scale(0.1)"
       id="g12"><path
         id="path14"
         style="fill:#e7e8e5;fill-opacity:1;fill-rule:nonzero;stroke:none"
         d="m 0,449.129 h 5000 v 2.5 H 0 Z" /><path
         id="path16"
         style="fill:#e7e8e5;fill-opacity:1;fill-rule:nonzero;stroke:none"
         d="m 3968.33,290.672 h 530.68 v -2.5 h -530.68 v 2.5" /><path
         id="path18"
         style="fill:#e7e8e5;fill-opacity:1;fill-rule:nonzero;stroke:none"
         d="m 2725.56,322.012 h 586.64 v -2.5 h -586.64 v 2.5" /><path
         id="path20"
         style="fill:#e7e8e5;fill-opacity:1;fill-rule:nonzero;stroke:none"
         d="m 3801.95,336.449 h 191.93 v -2.5 h -191.93 v 2.5" /><path
         id="path22"
         style="fill:#e7e8e5;fill-opacity:1;fill-rule:nonzero;stroke:none"
         d="m 1436.67,364.23 h -431.94 v 2.5 h 431.94 v -2.5" /><path
         id="path24"
         style="fill:#e7e8e5;fill-opacity:1;fill-rule:nonzero;stroke:none"
         d="M 949.035,364.23 H 794.59 v 2.5 h 154.445 v -2.5" /><path
         id="path26"
         style="fill:#e7e8e5;fill-opacity:1;fill-rule:nonzero;stroke:none"
         d="m 1314.71,324.512 h 541.96 v -2.5 h -541.96 v 2.5" /><path
         id="path28"
         style="fill:#e7e8e5;fill-opacity:1;fill-rule:nonzero;stroke:none"
         d="m 439.152,3723.59 c -30.101,0 -54.582,-24.48 -54.582,-54.58 V 954.699 c 0,-30.097 24.481,-54.578 54.582,-54.578 H 2370.14 c 30.09,0 54.57,24.481 54.57,54.578 V 3669.01 c 0,30.1 -24.48,54.58 -54.57,54.58 H 439.152 M 2370.14,897.621 H 439.152 c -31.476,0 -57.082,25.598 -57.082,57.078 V 3669.01 c 0,31.47 25.606,57.08 57.082,57.08 H 2370.14 c 31.46,0 57.07,-25.61 57.07,-57.08 V 954.699 c 0,-31.48 -25.61,-57.078 -57.07,-57.078" /><path
         id="path30"
         style="fill:#e7e8e5;fill-opacity:1;fill-rule:nonzero;stroke:none"
         d="m 2602.12,3723.59 c -30.09,0 -54.57,-24.48 -54.57,-54.58 V 954.699 c 0,-30.097 24.48,-54.578 54.57,-54.578 H 4533.1 c 30.1,0 54.59,24.481 54.59,54.578 V 3669.01 c 0,30.1 -24.49,54.58 -54.59,54.58 H 2602.12 M 4533.1,897.621 H 2602.12 c -31.47,0 -57.07,25.598 -57.07,57.078 V 3669.01 c 0,31.47 25.6,57.08 57.07,57.08 H 4533.1 c 31.48,0 57.09,-25.61 57.09,-57.08 V 954.699 c 0,-31.48 -25.61,-57.078 -57.09,-57.078" /><path
         id="path32"
         style="fill:#e2e2e0;fill-opacity:1;fill-rule:nonzero;stroke:none"
         d="M 2777.05,2265.24 H 4198.66 V 3595.66 H 2777.05 Z" /><path
         id="path34"
         style="fill:#ededeb;fill-opacity:1;fill-rule:nonzero;stroke:none"
         d="M 2787.38,2265.24 H 4275.43 V 3595.66 H 2787.38 Z" /><path
         id="path36"
         style="fill:#e2e2e0;fill-opacity:1;fill-rule:nonzero;stroke:none"
         d="m 2777.05,2199.73 h 1421.61 v 65.5117 H 2777.05 Z" /><path
         id="path38"
         style="fill:#ededeb;fill-opacity:1;fill-rule:nonzero;stroke:none"
         d="m 2915.28,2199.73 h 1488.05 v 65.5117 H 2915.28 Z" /><path
         id="path40"
         style="fill:#fafaf9;fill-opacity:1;fill-rule:nonzero;stroke:none"
         d="M 2894.86,2372.72 H 4167.95 V 3488.18 H 2894.86 Z" /><path
         id="path42"
         style="fill:#ffffff;fill-opacity:1;fill-rule:nonzero;stroke:none"
         d="m 3099.7,2372.72 131.83,1115.46 h 450.66 L 3550.37,2372.72 H 3099.7" /><path
         id="path44"
         style="fill:#e2e2e0;fill-opacity:1;fill-rule:nonzero;stroke:none"
         d="m 4154.3,2372.72 h 13.6484 V 3488.18 H 4154.3 Z" /><path
         id="path46"
         style="fill:#f0f0ee;fill-opacity:1;fill-rule:nonzero;stroke:none"
         d="m 4300.85,3476.48 h -25.42 v 32.62 h 15.53 l 9.89,-32.62" /><path
         id="path48"
         style="fill:#e6e6e4;fill-opacity:1;fill-rule:nonzero;stroke:none"
         d="m 4275.43,3476.48 h -107.48 v 11.7 h -540 c -18.97,8.56 -38.27,15.51 -57.74,20.92 h 705.22 v -32.62 m -1380.57,0 h -41.16 l -9.9,32.62 h 152.25 c 1.28,-6.96 2.5,-13.94 3.65,-20.92 h -104.84 v -11.7 m 404.13,11.7 h -249.04 c -1.91,7 -3.87,13.96 -5.9,20.92 h 312.91 c -19.81,-5.48 -39.22,-12.48 -57.97,-20.92" /><path
         id="path50"
         style="fill:#ededeb;fill-opacity:1;fill-rule:nonzero;stroke:none"
         d="m 4154.3,3476.48 h -473.49 l 1.38,11.7 h -54.24 v 0 h 540 -13.65 v -11.7 m -924.15,0 h -177.08 c -1.02,3.91 -2.06,7.81 -3.12,11.7 h 249.04 v 0 h -67.46 l -1.38,-11.7 m -228.58,0 h -106.71 v 11.7 h 104.84 c 0.64,-3.89 1.26,-7.8 1.87,-11.7" /><path
         id="path52"
         style="fill:#f0f0ee;fill-opacity:1;fill-rule:nonzero;stroke:none"
         d="m 3680.81,3476.48 h -29.03 c -5.69,3.04 -11.48,5.94 -17.37,8.72 -2.15,1.01 -4.3,2.01 -6.46,2.98 h 54.24 l -1.38,-11.7 m -405.67,0 h -44.99 l 1.38,11.7 h 67.46 c -8.07,-3.63 -16.03,-7.53 -23.85,-11.7" /><path
         id="path54"
         style="fill:#dedfdc;fill-opacity:1;fill-rule:nonzero;stroke:none"
         d="m 4154.3,3476.48 h 13.6484 v 11.6992 H 4154.3 Z" /><path
         id="path56"
         style="fill:#f0f0ee;fill-opacity:1;fill-rule:nonzero;stroke:none"
         d="m 4300.85,3422.19 h -25.42 v 32.61 h 15.53 l 9.89,-32.61" /><path
         id="path58"
         style="fill:#e6e6e4;fill-opacity:1;fill-rule:nonzero;stroke:none"
         d="m 4275.43,3422.19 h -107.48 v 32.61 h 107.48 v -32.61 m -1380.57,0 h -41.16 l -9.9,32.61 h 51.06 v -32.61" /><path
         id="path60"
         style="fill:#ededeb;fill-opacity:1;fill-rule:nonzero;stroke:none"
         d="m 4154.3,3422.19 h -424.44 c -13.12,11.68 -27.15,22.6 -41.99,32.61 h 466.43 v -32.61 m -957.21,0 h -131.07 c -2.35,10.9 -4.85,21.77 -7.48,32.61 h 169.04 l -1.04,-8.81 c -10.16,-7.45 -19.98,-15.37 -29.45,-23.8 m -188.38,0 h -113.85 v 32.61 h 109.86 c 1.47,-10.86 2.8,-21.73 3.99,-32.61" /><path
         id="path62"
         style="fill:#f0f0ee;fill-opacity:1;fill-rule:nonzero;stroke:none"
         d="m 3226.54,3445.99 1.04,8.81 h 11.49 c -4.22,-2.85 -8.41,-5.79 -12.53,-8.81" /><path
         id="path64"
         style="fill:#dedfdc;fill-opacity:1;fill-rule:nonzero;stroke:none"
         d="m 4154.3,3422.19 h 13.6484 v 32.6172 H 4154.3 Z" /><path
         id="path66"
         style="fill:#f0f0ee;fill-opacity:1;fill-rule:nonzero;stroke:none"
         d="m 4300.85,3367.89 h -25.42 v 32.61 h 15.53 l 9.89,-32.61" /><path
         id="path68"
         style="fill:#e6e6e4;fill-opacity:1;fill-rule:nonzero;stroke:none"
         d="m 4275.43,3367.89 h -107.48 v 32.61 h 107.48 v -32.61 m -1380.57,0 h -41.16 l -9.9,32.61 h 51.06 v -32.61" /><path
         id="path70"
         style="fill:#ededeb;fill-opacity:1;fill-rule:nonzero;stroke:none"
         d="m 4154.3,3367.89 h -373.85 c -8.72,11.32 -18.09,22.21 -28.07,32.61 h 401.92 v -32.61 m -1007.8,0 h -69.93 c -1.89,10.9 -3.91,21.77 -6.06,32.61 h 104.06 c -9.86,-10.28 -19.26,-21.17 -28.07,-32.61 m -133.05,0 h -118.59 v 32.61 h 116.02 c 1,-10.86 1.85,-21.74 2.57,-32.61" /><path
         id="path72"
         style="fill:#dedfdc;fill-opacity:1;fill-rule:nonzero;stroke:none"
         d="m 4154.3,3367.89 h 13.6484 v 32.6172 H 4154.3 Z" /><path
         id="path74"
         style="fill:#f0f0ee;fill-opacity:1;fill-rule:nonzero;stroke:none"
         d="m 4300.85,3313.59 h -25.42 v 32.61 h 15.53 l 9.89,-32.61" /><path
         id="path76"
         style="fill:#e6e6e4;fill-opacity:1;fill-rule:nonzero;stroke:none"
         d="m 4275.43,3313.59 h -107.48 v 32.61 h 107.48 v -32.61 m -1380.57,0 h -41.16 l -9.9,32.61 h 51.06 v -32.61" /><path
         id="path78"
         style="fill:#ededeb;fill-opacity:1;fill-rule:nonzero;stroke:none"
         d="m 4154.3,3313.59 h -338.6 c -6.02,11.15 -12.58,22.04 -19.66,32.61 h 358.26 v -32.61 m -1043.03,0 h -26.33 c -1.47,10.89 -3.06,21.77 -4.77,32.61 h 50.74 c -6.99,-10.45 -13.56,-21.34 -19.64,-32.61 m -95.3,0 h -121.11 v 32.61 h 119.86 c 0.54,-10.86 0.96,-21.74 1.25,-32.61" /><path
         id="path80"
         style="fill:#dedfdc;fill-opacity:1;fill-rule:nonzero;stroke:none"
         d="m 4154.3,3313.59 h 13.6484 v 32.6133 H 4154.3 Z" /><path
         id="path82"
         style="fill:#f0f0ee;fill-opacity:1;fill-rule:nonzero;stroke:none"
         d="m 4300.85,3259.29 h -25.42 v 32.62 h 15.53 l 9.89,-32.62" /><path
         id="path84"
         style="fill:#e6e6e4;fill-opacity:1;fill-rule:nonzero;stroke:none"
         d="m 4275.43,3259.29 h -107.48 v 32.62 h 107.48 v -32.62 m -1380.57,0 h -41.16 l -9.9,32.62 h 51.06 v -32.62" /><path
         id="path86"
         style="fill:#ededeb;fill-opacity:1;fill-rule:nonzero;stroke:none"
         d="m 4154.3,3259.29 h -314.29 c -4,11.06 -8.49,21.94 -13.44,32.62 h 327.73 v -32.62 m -1137.9,0 h -121.54 v 32.62 h 121.52 c 0.07,-5.55 0.1,-11.1 0.1,-16.64 0,-5.33 -0.03,-10.65 -0.08,-15.98 m 73.94,9.1 c -0.82,7.85 -1.7,15.68 -2.64,23.52 h 12.69 c -3.62,-7.79 -6.97,-15.62 -10.05,-23.52" /><path
         id="path88"
         style="fill:#dedfdc;fill-opacity:1;fill-rule:nonzero;stroke:none"
         d="m 4154.3,3259.29 h 13.6484 v 32.6172 H 4154.3 Z" /><path
         id="path90"
         style="fill:#f0f0ee;fill-opacity:1;fill-rule:nonzero;stroke:none"
         d="m 4300.85,3204.99 h -25.42 v 32.62 h 15.53 l 9.89,-32.62" /><path
         id="path92"
         style="fill:#e6e6e4;fill-opacity:1;fill-rule:nonzero;stroke:none"
         d="m 4275.43,3204.99 h -107.48 v 32.62 h 107.48 v -32.62 m -1380.57,0 h -41.16 l -9.9,32.62 h 51.06 v -32.62" /><path
         id="path94"
         style="fill:#ededeb;fill-opacity:1;fill-rule:nonzero;stroke:none"
         d="m 4154.3,3204.99 h -298.87 c -2.3,10.99 -5.06,21.87 -8.27,32.62 h 307.14 v -32.62 m -1139.42,0 h -120.02 v 32.62 h 121.16 c -0.27,-10.88 -0.65,-21.75 -1.14,-32.62" /><path
         id="path96"
         style="fill:#dedfdc;fill-opacity:1;fill-rule:nonzero;stroke:none"
         d="m 4154.3,3204.99 h 13.6484 v 32.6172 H 4154.3 Z" /><path
         id="path98"
         style="fill:#f0f0ee;fill-opacity:1;fill-rule:nonzero;stroke:none"
         d="m 4300.85,3150.69 h -25.42 v 32.62 h 15.53 l 9.89,-32.62" /><path
         id="path100"
         style="fill:#e6e6e4;fill-opacity:1;fill-rule:nonzero;stroke:none"
         d="m 4275.43,3150.69 h -107.48 v 32.62 h 107.48 v -32.62 m -1380.57,0 h -41.16 l -9.9,32.62 h 51.06 v -32.62" /><path
         id="path102"
         style="fill:#ededeb;fill-opacity:1;fill-rule:nonzero;stroke:none"
         d="m 4154.3,3150.69 h -291.31 c -0.76,10.94 -1.98,21.82 -3.63,32.62 h 294.94 v -32.62 m -1142.76,0 h -116.68 v 32.62 h 118.9 c -0.64,-10.88 -1.38,-21.76 -2.22,-32.62" /><path
         id="path104"
         style="fill:#dedfdc;fill-opacity:1;fill-rule:nonzero;stroke:none"
         d="m 4154.3,3150.69 h 13.6484 v 32.6172 H 4154.3 Z" /><path
         id="path106"
         style="fill:#f0f0ee;fill-opacity:1;fill-rule:nonzero;stroke:none"
         d="m 4300.85,3096.39 h -25.42 v 32.62 h 15.53 l 9.89,-32.62" /><path
         id="path108"
         style="fill:#e6e6e4;fill-opacity:1;fill-rule:nonzero;stroke:none"
         d="m 4275.43,3096.39 h -107.48 v 32.62 h 107.48 v -32.62 m -1380.57,0 h -26.45 c -7.94,11.34 -15.96,22.19 -24.06,32.62 h 50.51 v -32.62" /><path
         id="path110"
         style="fill:#ededeb;fill-opacity:1;fill-rule:nonzero;stroke:none"
         d="m 4154.3,3096.39 h -291.22 c 0.73,10.9 1,21.77 0.84,32.62 h 290.38 v -32.62 m -1147.81,0 h -111.63 v 32.62 h 114.86 c -0.55,-6.12 -1.13,-12.22 -1.74,-18.33 -0.48,-4.77 -0.98,-9.52 -1.49,-14.29" /><path
         id="path112"
         style="fill:#dedfdc;fill-opacity:1;fill-rule:nonzero;stroke:none"
         d="m 4154.3,3096.39 h 13.6484 v 32.6172 H 4154.3 Z" /><path
         id="path114"
         style="fill:#f0f0ee;fill-opacity:1;fill-rule:nonzero;stroke:none"
         d="m 4300.85,3042.09 h -25.42 v 32.62 h 15.53 l 9.89,-32.62" /><path
         id="path116"
         style="fill:#e6e6e4;fill-opacity:1;fill-rule:nonzero;stroke:none"
         d="m 4275.43,3042.09 h -107.48 v 32.62 h 107.48 v -32.62 m -1380.57,14.21 c -3.88,6.25 -7.82,12.41 -11.75,18.41 h 11.75 v -18.41" /><path
         id="path118"
         style="fill:#ededeb;fill-opacity:1;fill-rule:nonzero;stroke:none"
         d="m 4154.3,3042.09 h -298.62 c 2.25,10.85 4.03,21.73 5.36,32.62 h 293.26 v -32.62 m -1154.49,0 h -96.3 c -2.87,4.81 -5.75,9.54 -8.65,14.21 v 18.41 h 109.15 c -1.31,-10.89 -2.71,-21.75 -4.2,-32.62" /><path
         id="path120"
         style="fill:#dedfdc;fill-opacity:1;fill-rule:nonzero;stroke:none"
         d="m 4154.3,3042.09 h 13.6484 v 32.6172 H 4154.3 Z" /><path
         id="path122"
         style="fill:#f0f0ee;fill-opacity:1;fill-rule:nonzero;stroke:none"
         d="m 4300.85,2987.79 h -25.42 v 32.62 h 15.53 l 9.89,-32.62" /><path
         id="path124"
         style="fill:#e6e6e4;fill-opacity:1;fill-rule:nonzero;stroke:none"
         d="m 4167.95,2987.79 h 107.48 v 32.6172 h -107.48 z" /><path
         id="path126"
         style="fill:#ededeb;fill-opacity:1;fill-rule:nonzero;stroke:none"
         d="m 4154.3,2987.79 h -313.97 c 3.9,10.8 7.3,21.69 10.21,32.62 h 303.76 v -32.62 m -1162.68,0 h -58.08 c -5.73,11.18 -11.58,22.08 -17.49,32.62 h 80.67 c -1.62,-10.88 -3.32,-21.77 -5.1,-32.62" /><path
         id="path128"
         style="fill:#dedfdc;fill-opacity:1;fill-rule:nonzero;stroke:none"
         d="m 4154.3,2987.79 h 13.6484 v 32.6172 H 4154.3 Z" /><path
         id="path130"
         style="fill:#f0f0ee;fill-opacity:1;fill-rule:nonzero;stroke:none"
         d="m 4300.85,2933.5 h -25.42 v 32.61 h 15.53 l 9.89,-32.61" /><path
         id="path132"
         style="fill:#e6e6e4;fill-opacity:1;fill-rule:nonzero;stroke:none"
         d="m 4167.95,2933.5 h 107.48 v 32.6133 h -107.48 z" /><path
         id="path134"
         style="fill:#ededeb;fill-opacity:1;fill-rule:nonzero;stroke:none"
         d="m 4154.3,2933.5 h -338.17 c 3.28,6.11 6.42,12.35 9.42,18.69 2.18,4.61 4.27,9.27 6.25,13.92 h 322.5 v -32.61 m -1043.5,0 h -16.73 c 0.72,10.17 1.37,20.37 1.96,30.55 4.49,-10.38 9.42,-20.57 14.77,-30.55 m -128.82,0 h -22.67 c -3.03,7.01 -6.2,14.05 -9.52,21.13 -1.81,3.87 -3.63,7.68 -5.46,11.48 h 43.61 c -1.91,-10.88 -3.9,-21.76 -5.96,-32.61" /><path
         id="path136"
         style="fill:#dedfdc;fill-opacity:1;fill-rule:nonzero;stroke:none"
         d="m 4154.3,2933.5 h 13.6484 v 32.6133 H 4154.3 Z" /><path
         id="path138"
         style="fill:#f0f0ee;fill-opacity:1;fill-rule:nonzero;stroke:none"
         d="m 4300.85,2879.19 h -25.42 v 32.62 h 15.53 l 9.89,-32.62" /><path
         id="path140"
         style="fill:#e6e6e4;fill-opacity:1;fill-rule:nonzero;stroke:none"
         d="m 4167.95,2879.19 h 107.48 v 32.6211 h -107.48 z" /><path
         id="path142"
         style="fill:#ededeb;fill-opacity:1;fill-rule:nonzero;stroke:none"
         d="m 4154.3,2879.19 h -373.21 c 7.98,10.41 15.5,21.29 22.52,32.62 h 350.69 v -32.62 m -1008.44,0 h -56.26 c 1.02,10.87 1.96,21.74 2.84,32.62 h 30.89 c 6.95,-11.21 14.46,-22.09 22.53,-32.62 m -171.41,16.49 c -1.97,5.37 -4.02,10.72 -6.16,16.13 h 9.45 c -1.08,-5.38 -2.17,-10.75 -3.29,-16.13" /><path
         id="path144"
         style="fill:#dedfdc;fill-opacity:1;fill-rule:nonzero;stroke:none"
         d="m 4154.3,2879.19 h 13.6484 v 32.6211 H 4154.3 Z" /><path
         id="path146"
         style="fill:#f0f0ee;fill-opacity:1;fill-rule:nonzero;stroke:none"
         d="m 4300.85,2824.9 h -25.42 v 32.61 h 15.53 l 9.89,-32.61" /><path
         id="path148"
         style="fill:#e6e6e4;fill-opacity:1;fill-rule:nonzero;stroke:none"
         d="m 4167.95,2824.9 h 107.48 v 32.6133 h -107.48 z" /><path
         id="path150"
         style="fill:#ededeb;fill-opacity:1;fill-rule:nonzero;stroke:none"
         d="m 4154.3,2824.9 h -423.51 c 11.36,10.17 22.2,21.06 32.43,32.61 h 391.08 v -32.61 m -1001.16,0 h -69.2 c 1.25,10.86 2.43,21.73 3.54,32.61 H 3157 l -3.86,-32.61" /><path
         id="path152"
         style="fill:#f0f0ee;fill-opacity:1;fill-rule:nonzero;stroke:none"
         d="m 3196.16,2824.9 h -43.02 l 3.86,32.61 h 6.73 c 10.11,-11.42 20.93,-22.32 32.43,-32.61" /><path
         id="path154"
         style="fill:#dedfdc;fill-opacity:1;fill-rule:nonzero;stroke:none"
         d="m 4154.3,2824.9 h 13.6484 v 32.6133 H 4154.3 Z" /><path
         id="path156"
         style="fill:#f0f0ee;fill-opacity:1;fill-rule:nonzero;stroke:none"
         d="m 4300.85,2770.6 h -25.42 v 32.61 h 15.53 l 9.89,-32.61" /><path
         id="path158"
         style="fill:#e6e6e4;fill-opacity:1;fill-rule:nonzero;stroke:none"
         d="m 4167.95,2770.6 h 107.48 v 32.6094 h -107.48 z" /><path
         id="path160"
         style="fill:#ededeb;fill-opacity:1;fill-rule:nonzero;stroke:none"
         d="m 4154.3,2770.6 h -500.94 c 17.74,9.53 34.8,20.43 51.02,32.61 h 449.92 v -32.61 m -1007.57,0 h -69.59 c 1.47,10.86 2.88,21.73 4.22,32.61 h 69.22 l -3.85,-32.61" /><path
         id="path162"
         style="fill:#f0f0ee;fill-opacity:1;fill-rule:nonzero;stroke:none"
         d="m 3273.62,2770.6 h -126.89 l 3.85,32.61 h 71.99 c 15.96,-11.99 32.98,-22.91 51.05,-32.61" /><path
         id="path164"
         style="fill:#dedfdc;fill-opacity:1;fill-rule:nonzero;stroke:none"
         d="m 4154.3,2770.6 h 13.6484 v 32.6094 H 4154.3 Z" /><path
         id="path166"
         style="fill:#f0f0ee;fill-opacity:1;fill-rule:nonzero;stroke:none"
         d="m 4300.85,2716.3 h -25.42 v 32.61 h 15.53 l 9.89,-32.61" /><path
         id="path168"
         style="fill:#e6e6e4;fill-opacity:1;fill-rule:nonzero;stroke:none"
         d="m 4167.95,2716.3 h 107.48 v 32.6094 h -107.48 z" /><path
         id="path170"
         style="fill:#ededeb;fill-opacity:1;fill-rule:nonzero;stroke:none"
         d="m 4154.3,2716.3 h -563.33 l 3.36,28.42 c 3.86,1.34 7.72,2.74 11.55,4.19 h 548.42 v -32.61 m -1013.99,0 h -71.02 c 1.67,10.86 3.28,21.73 4.84,32.61 h 70.03 l -3.85,-32.61" /><path
         id="path172"
         style="fill:#f0f0ee;fill-opacity:1;fill-rule:nonzero;stroke:none"
         d="m 3590.97,2716.3 h -450.66 l 3.85,32.61 h 176.85 c 46.56,-17.78 94.68,-26.27 142.19,-26.27 44.89,0 89.21,7.58 131.13,22.08 l -3.36,-28.42" /><path
         id="path174"
         style="fill:#dedfdc;fill-opacity:1;fill-rule:nonzero;stroke:none"
         d="m 4154.3,2716.3 h 13.6484 v 32.6094 H 4154.3 Z" /><path
         id="path176"
         style="fill:#f0f0ee;fill-opacity:1;fill-rule:nonzero;stroke:none"
         d="m 4300.85,2662 h -25.42 v 32.61 h 15.53 l 9.89,-32.61" /><path
         id="path178"
         style="fill:#e6e6e4;fill-opacity:1;fill-rule:nonzero;stroke:none"
         d="m 4167.95,2662 h 107.48 v 32.6094 h -107.48 z" /><path
         id="path180"
         style="fill:#ededeb;fill-opacity:1;fill-rule:nonzero;stroke:none"
         d="m 4154.3,2662 h -569.75 l 3.86,32.61 H 4154.3 V 2662 m -1020.41,0 h -73.47 c 1.43,8.31 2.84,16.63 4.2,24.96 0.42,2.55 0.84,5.1 1.25,7.65 h 71.88 l -3.86,-32.61" /><path
         id="path182"
         style="fill:#f0f0ee;fill-opacity:1;fill-rule:nonzero;stroke:none"
         d="m 3584.55,2662 h -450.66 l 3.86,32.61 h 450.66 l -3.86,-32.61" /><path
         id="path184"
         style="fill:#dedfdc;fill-opacity:1;fill-rule:nonzero;stroke:none"
         d="m 4154.3,2662 h 13.6484 v 32.6094 H 4154.3 Z" /><path
         id="path186"
         style="fill:#f0f0ee;fill-opacity:1;fill-rule:nonzero;stroke:none"
         d="m 4300.85,2607.7 h -25.42 v 32.61 h 15.53 l 9.89,-32.61" /><path
         id="path188"
         style="fill:#e6e6e4;fill-opacity:1;fill-rule:nonzero;stroke:none"
         d="m 4167.95,2607.7 h 107.48 v 32.6094 h -107.48 z" /><path
         id="path190"
         style="fill:#ededeb;fill-opacity:1;fill-rule:nonzero;stroke:none"
         d="m 4154.3,2607.7 h -576.16 l 3.85,32.61 h 572.31 v -32.61 m -1026.83,0 h -76.87 c 2.05,10.86 4.06,21.73 6.01,32.61 h 74.72 l -3.86,-32.61" /><path
         id="path192"
         style="fill:#f0f0ee;fill-opacity:1;fill-rule:nonzero;stroke:none"
         d="m 3578.14,2607.7 h -450.67 l 3.86,32.61 h 450.66 l -3.85,-32.61" /><path
         id="path194"
         style="fill:#dedfdc;fill-opacity:1;fill-rule:nonzero;stroke:none"
         d="m 4154.3,2607.7 h 13.6484 v 32.6094 H 4154.3 Z" /><path
         id="path196"
         style="fill:#f0f0ee;fill-opacity:1;fill-rule:nonzero;stroke:none"
         d="m 4300.85,2553.4 h -25.42 v 32.62 h 15.53 l 9.89,-32.62" /><path
         id="path198"
         style="fill:#e6e6e4;fill-opacity:1;fill-rule:nonzero;stroke:none"
         d="m 4167.95,2553.4 h 107.48 v 32.6211 h -107.48 z" /><path
         id="path200"
         style="fill:#ededeb;fill-opacity:1;fill-rule:nonzero;stroke:none"
         d="m 4154.3,2553.4 h -582.58 l 3.85,32.62 h 578.73 v -32.62 m -1033.24,0 h -81.19 c 2.23,10.86 4.42,21.73 6.55,32.62 h 78.49 l -3.85,-32.62" /><path
         id="path202"
         style="fill:#f0f0ee;fill-opacity:1;fill-rule:nonzero;stroke:none"
         d="m 3571.72,2553.4 h -450.66 l 3.85,32.62 h 450.66 l -3.85,-32.62" /><path
         id="path204"
         style="fill:#dedfdc;fill-opacity:1;fill-rule:nonzero;stroke:none"
         d="m 4154.3,2553.4 h 13.6484 v 32.6211 H 4154.3 Z" /><path
         id="path206"
         style="fill:#e2e2e0;fill-opacity:1;fill-rule:nonzero;stroke:none"
         d="m 810.594,2391.84 h 1176.34 V 3559.39 H 810.594 Z" /><path
         id="path208"
         style="fill:#ededeb;fill-opacity:1;fill-rule:nonzero;stroke:none"
         d="m 822.594,2391.84 h 1227.77 V 3559.39 H 822.594 Z" /><path
         id="path210"
         style="fill:#ffffff;fill-opacity:1;fill-rule:nonzero;stroke:none"
         d="m 879.262,2448.51 h 1114.43 V 3502.72 H 879.262 Z" /><path
         id="path212"
         style="fill:#e2e2e0;fill-opacity:1;fill-rule:nonzero;stroke:none"
         d="m 1986.73,2448.51 v 1054.21 h 6.96 V 2448.51 h -6.96" /><path
         id="path214"
         style="fill:#ededeb;fill-opacity:1;fill-rule:nonzero;stroke:none"
         d="M 1082.51,513.711 H 763.098 V 1829.31 H 1082.51 V 513.711" /><path
         id="path216"
         style="fill:#ededeb;fill-opacity:1;fill-rule:nonzero;stroke:none"
         d="m 824.426,451.629 h 1226.55 v 62.082 H 824.426 Z" /><path
         id="path218"
         style="fill:#f3f2f1;fill-opacity:1;fill-rule:nonzero;stroke:none"
         d="m 1082.51,513.711 h 1029.8 v 1315.6 h -1029.8 z" /><path
         id="path220"
         style="fill:#ededeb;fill-opacity:1;fill-rule:nonzero;stroke:none"
         d="m 1208.08,1010.85 h 778.652 v 321.32 H 1208.08 Z" /><path
         id="path222"
         style="fill:#ededeb;fill-opacity:1;fill-rule:nonzero;stroke:none"
         d="m 1208.08,630.922 h 778.652 V 952.238 H 1208.08 Z" /><path
         id="path224"
         style="fill:#ededeb;fill-opacity:1;fill-rule:nonzero;stroke:none"
         d="m 1208.08,1390.78 h 778.652 V 1712.1 H 1208.08 Z" /><path
         id="path226"
         style="fill:#ededeb;fill-opacity:1;fill-rule:nonzero;stroke:none"
         d="m 1082.51,1829.31 h 1072.36 v 108.023 H 1082.51 Z" /><path
         id="path228"
         style="fill:#e2e2e0;fill-opacity:1;fill-rule:nonzero;stroke:none"
         d="M 718.461,1937.33 H 1082.51 V 1829.31 H 718.461 v 108.02" /><path
         id="path230"
         style="fill:#ededeb;fill-opacity:1;fill-rule:nonzero;stroke:none"
         d="m 886.023,1937.33 h 317.496 v 232.488 H 886.023 Z" /><path
         id="path232"
         style="fill:#f3f2f1;fill-opacity:1;fill-rule:nonzero;stroke:none"
         d="m 1203.52,1937.33 h 563.281 v 232.488 H 1203.52 Z" /><path
         id="path234"
         style="fill:#d9dad7;fill-opacity:1;fill-rule:nonzero;stroke:none"
         d="m 886.023,2095.01 h 317.496 v 26.0977 H 886.023 Z" /><path
         id="path236"
         style="fill:#dedfdc;fill-opacity:1;fill-rule:nonzero;stroke:none"
         d="m 1762.62,2095.01 h -559.1 v 26.1 h 547.93 c 3.6,-8.47 7.31,-17.16 11.17,-26.1" /><path
         id="path238"
         style="fill:#ededeb;fill-opacity:1;fill-rule:nonzero;stroke:none"
         d="m 868.5,2185.61 h 335.02 v -75.49 H 868.5 v 75.49" /><path
         id="path240"
         style="fill:#f3f2f1;fill-opacity:1;fill-rule:nonzero;stroke:none"
         d="m 1784.33,2185.61 h -580.81 v -75.49 h 580.81 v 75.49" /><path
         id="path242"
         style="fill:#ededeb;fill-opacity:1;fill-rule:nonzero;stroke:none"
         d="M 4283.09,1937.33 H 3210.28 L 3327.14,451.629 H 4399.95 L 4283.09,1937.33" /><path
         id="path244"
         style="fill:#f3f2f1;fill-opacity:1;fill-rule:nonzero;stroke:none"
         d="M 4338.47,1937.33 H 3265.66 L 3382.52,451.629 H 4455.33 L 4338.47,1937.33" /><path
         id="path246"
         style="fill:#ffffff;fill-opacity:1;fill-rule:nonzero;stroke:none"
         d="m 3573.73,658.941 -84.25,1071.089 h 657.78 l 84.25,-1071.089 h -657.78" /><path
         id="path248"
         style="fill:#e2e2e0;fill-opacity:1;fill-rule:nonzero;stroke:none"
         d="m 2947.2,699.328 c 0,136.801 110.9,247.703 247.7,247.703 136.8,0 247.7,-110.902 247.7,-247.703 0,-136.797 -110.9,-247.699 -247.7,-247.699 -136.8,0 -247.7,110.902 -247.7,247.699" /><path
         id="path250"
         style="fill:#cfd1ce;fill-opacity:1;fill-rule:nonzero;stroke:none"
         d="m 3348.12,829.391 c -8.87,0 -21.26,6.488 -31.94,17.558 -14.74,15.289 -20.63,33.543 -13.15,40.75 2.06,1.992 4.93,2.942 8.31,2.942 8.87,0 21.26,-6.493 31.93,-17.563 14.75,-15.289 20.64,-33.539 13.16,-40.746 -2.07,-1.992 -4.94,-2.941 -8.31,-2.941" /><path
         id="path252"
         style="fill:#cfd1ce;fill-opacity:1;fill-rule:nonzero;stroke:none"
         d="m 3227.36,892.02 c -4.43,0 -9.18,0.441 -14.05,1.378 -20.86,4 -36.18,15.532 -34.22,25.731 1.5,7.832 12.72,12.613 27.28,12.613 4.43,0 9.17,-0.453 14.04,-1.383 20.87,-4.007 36.19,-15.539 34.23,-25.738 -1.51,-7.832 -12.73,-12.601 -27.28,-12.601" /><path
         id="path254"
         style="fill:#cfd1ce;fill-opacity:1;fill-rule:nonzero;stroke:none"
         d="m 3253.46,803.559 c -5.96,0 -12.47,1.101 -19.02,3.39 -20.05,7.039 -32.8,22.711 -28.48,35.012 2.91,8.277 12.81,12.918 25.08,12.918 5.96,0 12.48,-1.09 19.03,-3.391 20.04,-7.039 32.79,-22.707 28.48,-35.008 -2.91,-8.281 -12.81,-12.921 -25.09,-12.921" /><path
         id="path256"
         style="fill:#f3f2f1;fill-opacity:1;fill-rule:nonzero;stroke:none"
         d="M 4438.89,113.23 C 4438.89,50.6914 3570.82,0 2500,0 1429.18,0 561.109,50.6914 561.109,113.23 c 0,62.54 868.071,113.239 1938.891,113.239 1070.82,0 1938.89,-50.699 1938.89,-113.239" /><path
         id="path258"
         style="fill:#17282f;fill-opacity:1;fill-rule:nonzero;stroke:none"
         d="m 2073.45,2683.91 c -127.07,44.48 -76.24,402.22 -381.71,209.84 -69.24,-43.6 -153.27,-329.6 -95.2,-395.99 81.07,-92.71 626.75,133.69 476.91,186.15" /><path
         id="path260"
         style="fill:#f46b74;fill-opacity:1;fill-rule:nonzero;stroke:none"
         d="m 1715.79,2344.27 c -2.52,-4.73 -4.04,-7.29 -6.06,-10.69 l -5.79,-9.32 c -3.92,-6.09 -8.11,-11.88 -12.34,-17.64 -8.55,-11.43 -17.67,-22.4 -27.45,-32.9 -19.71,-20.83 -42.16,-39.65 -67.58,-55.09 -25.23,-15.6 -53.81,-27.25 -83.78,-33.2 -14.98,-2.8 -30.2,-4.83 -45.39,-4.63 -7.61,-0.31 -15.12,0.52 -22.65,0.8 l -11.17,1.32 -5.57,0.68 c -2.16,0.3 -5.26,0.9 -7.82,1.4 -21.49,4.94 -37.96,16.07 -50.37,27.42 -12.55,11.5 -21.93,23.71 -30.13,35.91 -16.18,24.5 -27.29,49.5 -36.98,74.5 -18.89,50.26 -30.72,100.46 -38.4,152.6 l 43.02,9.69 c 16.07,-46.14 34.77,-92.83 56.41,-135.28 10.86,-21.17 22.98,-41.42 36.25,-58.1 6.58,-8.28 13.58,-15.59 20.25,-20.57 6.69,-5.06 12.56,-7.47 15.98,-7.69 l 13.14,-0.64 c 5.1,0.28 10.24,-0.1 15.27,0.56 10.12,0.58 20.01,2.49 29.76,4.8 19.41,5.09 38.03,13.56 55.57,24.91 17.61,11.23 33.7,25.84 48.58,41.85 7.49,7.99 14.58,16.48 21.19,25.29 3.28,4.4 6.46,8.9 9.48,13.39 l 4.42,6.66 3.51,5.68 78.65,-41.71" /><path
         id="path262"
         style="fill:#17282f;fill-opacity:1;fill-rule:nonzero;stroke:none"
         d="M 1739.97,2448.22 C 1650.3,2447.78 1579.08,2365 1579.08,2365 l 109.63,-148.03 c 0,0 88.7,83.43 98.14,130.65 9.84,49.18 7.16,100.87 -46.88,100.6" /><path
         id="path264"
         style="fill:#f46b74;fill-opacity:1;fill-rule:nonzero;stroke:none"
         d="m 1302.97,2463.94 39.26,64.99 -90.97,-2.35 c 0,0 -7.18,-42.85 16.81,-69.96 l 34.9,7.32" /><path
         id="path266"
         style="fill:#f46b74;fill-opacity:1;fill-rule:nonzero;stroke:none"
         d="m 1338.64,2605.05 -67.21,-14.34 -20.17,-64.13 90.97,2.35 -3.59,76.12" /><path
         id="path268"
         style="fill:#f46b74;fill-opacity:1;fill-rule:nonzero;stroke:none"
         d="m 2191,205.602 -85.9,-8.223 -43.78,200.203 85.91,8.219 43.77,-200.199" /><path
         id="path270"
         style="fill:#f46b74;fill-opacity:1;fill-rule:nonzero;stroke:none"
         d="m 2970.76,464.832 -65.07,-57.871 -154.93,132.059 65.07,57.871 154.93,-132.059" /><path
         id="path272"
         style="fill:#17282f;fill-opacity:1;fill-rule:nonzero;stroke:none"
         d="m 2882.24,417.992 37.75,90.246 c 1.37,3.282 4.77,4.992 8.17,4.114 l 75.7,-19.582 c 7.86,-2.032 12.2,-11.329 8.9,-18.848 -13.7,-31.242 -21.89,-45.633 -38.49,-85.32 -10.21,-24.422 -29.21,-79.93 -43.32,-113.641 -13.79,-32.981 -48.19,-21.57 -45.34,-6.27 12.79,68.618 4.9,105.149 -4.04,133.809 -1.62,5.16 -1.34,10.68 0.67,15.492" /><path
         id="path274"
         style="fill:#17282f;fill-opacity:1;fill-rule:nonzero;stroke:none"
         d="m 2094.29,223.371 h 103.3 c 3.76,0 7.15,-2.609 8.16,-6.281 l 22.46,-81.731 c 2.33,-8.468 -3.91,-16.5 -12.6,-16.347 -36.1,0.617 -53.73,2.738 -99.15,2.738 -27.95,0 -100.18,-2.91 -138.78,-2.91 -37.74,0 -45.64,38.172 -30.02,41.621 70.03,15.5 110.4,36.871 132.01,57.258 3.89,3.679 9.12,5.652 14.62,5.652" /><path
         id="path276"
         style="fill:#ea5b5b;fill-opacity:1;fill-rule:nonzero;stroke:none"
         d="m 2127.85,294.328 h -43.95 l -6.94,31.731 47.84,2.312 3.05,-34.043" /><path
         id="path278"
         style="fill:#17282f;fill-opacity:1;fill-rule:nonzero;stroke:none"
         d="m 1655.95,2424.07 c 0,0 -36.04,-25.2 181.04,-495.12 135.18,37.63 274.9,76.53 340.68,94.84 -44.31,137.07 -68.28,222.52 -81.23,525.53 0,0 -75.7,-4.34 -149.97,-21.21 -58.1,-13.2 -105.58,-24.45 -154.7,-43.08 -64.76,-24.56 -135.82,-60.96 -135.82,-60.96" /><path
         id="path280"
         style="fill:#f46b74;fill-opacity:1;fill-rule:nonzero;stroke:none"
         d="m 1882.64,2698.03 c 4.1,-52.49 19.76,-146.4 63.83,-169.92 0,0 15.5,-111.98 -70.83,-213.9 -118.28,61.37 -83.87,170.82 -83.87,170.82 51.81,28.71 38.92,69.5 18.48,105.48 l 72.39,107.52" /><path
         id="path282"
         style="fill:#111d23;fill-opacity:1;fill-rule:nonzero;stroke:none"
         d="m 1916.79,2560.1 c -1.82,3.24 -3.56,6.63 -5.22,10.14 1.68,-3.51 3.46,-6.89 5.34,-10.13 -0.04,0 -0.08,-0.01 -0.12,-0.01" /><path
         id="path284"
         style="fill:#ea5b5b;fill-opacity:1;fill-rule:nonzero;stroke:none"
         d="m 1907.94,2559.67 c -22.3,0 -48.89,7.73 -57.73,24.81 -5.83,10.98 -8.58,27.8 -8.8,33.86 l 59.37,-20.14 c 3.09,-9.85 6.65,-19.29 10.79,-27.96 1.66,-3.51 3.4,-6.9 5.22,-10.14 -2.83,-0.28 -5.8,-0.43 -8.85,-0.43" /><path
         id="path286"
         style="fill:#f46b74;fill-opacity:1;fill-rule:nonzero;stroke:none"
         d="m 1710.3,2752.95 c 22.95,-83.31 30.89,-119.07 82.64,-153.42 77.84,-51.66 175.16,-5.25 177.56,83.24 2.16,79.65 -35.73,202.52 -125.43,218.72 -88.36,15.96 -157.72,-65.22 -134.77,-148.54" /><path
         id="path288"
         style="fill:#17282f;fill-opacity:1;fill-rule:nonzero;stroke:none"
         d="m 1834.47,2915.07 c -6.76,-56.57 -48.96,-251.17 -128.6,-249.78 -65.66,57.32 -33.24,165.25 -12.9,209.1 20.33,43.86 141.5,40.68 141.5,40.68" /><path
         id="path290"
         style="fill:#17282f;fill-opacity:1;fill-rule:nonzero;stroke:none"
         d="m 1801.01,2875.03 c 40.05,-21.29 118.71,-30.58 106.15,1.91 -12.57,32.48 -8.91,59.42 -63.09,58.79 -54.18,-0.64 -43.06,-60.7 -43.06,-60.7" /><path
         id="path292"
         style="fill:#f46b74;fill-opacity:1;fill-rule:nonzero;stroke:none"
         d="m 1713.22,2674.03 c 5.4,-17.08 18.18,-30.08 31.35,-36.66 19.82,-9.89 33.91,6.82 31.9,27.7 -1.8,18.81 -14.28,46.61 -35.85,47.82 -21.25,1.19 -33.57,-19.32 -27.4,-38.86" /><path
         id="path294"
         style="fill:#406fbf;fill-opacity:1;fill-rule:nonzero;stroke:none"
         d="m 1836.99,1928.95 c 0,0 -19.66,-688.26 35.48,-948.071 57.35,-270.25 169.28,-656.52 169.28,-656.52 l 163.2,7.891 c 0,0 -78.98,490.102 -98.15,698.97 -26.42,287.97 -20.34,967.18 -20.34,967.18 l -249.47,-69.45" /><path
         id="path296"
         style="fill:#7ba4dc;fill-opacity:1;fill-rule:nonzero;stroke:none"
         d="m 2041.75,324.359 c 0,0 -111.93,386.27 -169.28,656.52 -32.18,151.601 -38.89,449.071 -38.89,670.571 -0.01,158.1 3.41,277.5 3.41,277.5 l 89.96,25.04 c 0.02,-0.03 46.26,-124.43 109.88,-288.48 6.31,-101.05 26.08,-198.63 52.94,-254.5 3.01,-143.66 8.21,-283.56 17.03,-379.79 0.42,-4.52 0.86,-9.19 1.33,-13.97 h -45.06 l 10.3,-114.41 51.43,-574.469 -47.84,-2.312 v 0 l -35.21,-1.7" /><path
         id="path298"
         style="fill:#babcba;fill-opacity:1;fill-rule:nonzero;stroke:none"
         d="m 2089.81,1410.91 c -0.01,0.03 -0.03,0.07 -0.04,0.1 -0.87,41.54 -1.56,83.37 -2.1,124.57 0.02,-0.05 0.04,-0.1 0.06,-0.15 0.53,-41.16 1.21,-83 2.08,-124.52" /><path
         id="path300"
         style="fill:#5f87cd;fill-opacity:1;fill-rule:nonzero;stroke:none"
         d="m 2089.77,1411.01 c -26.86,55.87 -46.63,153.45 -52.94,254.5 16.01,-41.26 33.1,-85 50.84,-129.93 0.54,-41.2 1.23,-83.03 2.1,-124.57" /><path
         id="path302"
         style="fill:#17282f;fill-opacity:1;fill-rule:nonzero;stroke:none"
         d="m 2216.37,324.359 -186.04,-8.988 -21.97,68.008 201.64,15.73 6.37,-74.75" /><path
         id="path304"
         style="fill:#406fbf;fill-opacity:1;fill-rule:nonzero;stroke:none"
         d="m 1926.95,1953.99 c 0,0 208.97,-562.19 349.81,-872.61 113.76,-250.72 516.88,-601.091 516.88,-601.091 l 91.58,77.441 c 0,0 -291.4,399.352 -370.06,569.43 -251.74,544.38 -186.02,774.96 -337.49,896.63 l -250.72,-69.8" /><path
         id="path306"
         style="fill:#7ba4dc;fill-opacity:1;fill-rule:nonzero;stroke:none"
         d="m 2415.85,1017.25 h -105.24 c -13.01,21.89 -24.42,43.35 -33.85,64.13 -57.93,127.68 -127.39,297.97 -189.09,454.2 -17.74,44.93 -34.83,88.67 -50.84,129.93 -63.63,164.07 -109.88,288.48 -109.88,288.48 l 250.72,69.8 c 70.74,-56.82 94.11,-137.4 124.57,-262.61 -33.49,-53.44 -69.28,-138.42 -69.28,-257.56 0.01,-41.61 4.38,-87.39 14.73,-137.44 27.47,-132.73 94.02,-219.47 166.91,-251.79 -0.15,-9.26 -0.23,-18.54 -0.23,-27.82 0,-23.07 0.49,-46.17 1.48,-69.32" /><path
         id="path308"
         style="fill:#17282f;fill-opacity:1;fill-rule:nonzero;stroke:none"
         d="m 2892.78,558.641 -102.42,-90.422 -52.03,37.672 120.66,102.961 33.79,-50.211" /><path
         id="path310"
         style="fill:#406fbf;fill-opacity:1;fill-rule:nonzero;stroke:none"
         d="m 2177.21,2045.2 23.85,-26.22 c 1.85,-2.03 -0.28,-5.22 -4.22,-6.32 l -357.28,-99.46 c -3.08,-0.86 -6.04,-0.06 -6.77,1.82 l -11.56,29.64 c -0.8,2.05 1.36,4.58 4.72,5.51 l 345,96.05 c 2.53,0.7 5.07,0.29 6.26,-1.02" /><path
         id="path312"
         style="fill:#17282f;fill-opacity:1;fill-rule:nonzero;stroke:none"
         d="m 2141.61,1993.73 9.24,2.57 c 1.84,0.51 2.98,1.85 2.53,2.98 l -15.36,38.41 c -0.45,1.12 -2.32,1.62 -4.16,1.11 l -9.24,-2.57 c -1.84,-0.51 -2.98,-1.85 -2.53,-2.98 l 15.36,-38.41 c 0.45,-1.12 2.32,-1.62 4.16,-1.11" /><path
         id="path314"
         style="fill:#17282f;fill-opacity:1;fill-rule:nonzero;stroke:none"
         d="m 1866.44,1917.12 9.24,2.58 c 1.84,0.51 2.98,1.85 2.53,2.97 l -15.36,38.41 c -0.45,1.13 -2.33,1.63 -4.17,1.12 l -9.24,-2.57 c -1.84,-0.52 -2.97,-1.86 -2.52,-2.98 l 15.36,-38.41 c 0.45,-1.13 2.32,-1.63 4.16,-1.12" /><path
         id="path316"
         style="fill:#17282f;fill-opacity:1;fill-rule:nonzero;stroke:none"
         d="m 2004.03,1955.43 9.24,2.57 c 1.84,0.51 2.98,1.85 2.53,2.97 l -15.37,38.42 c -0.45,1.12 -2.32,1.62 -4.16,1.11 l -9.24,-2.57 c -1.84,-0.51 -2.98,-1.85 -2.53,-2.98 l 15.36,-38.41 c 0.45,-1.13 2.33,-1.63 4.17,-1.11" /><path
         id="path318"
         style="fill:#17282f;fill-opacity:1;fill-rule:nonzero;stroke:none"
         d="m 1843.3,2756.31 c 1.44,-6.87 6.26,-11.68 10.75,-10.73 4.49,0.95 6.96,7.28 5.51,14.16 -1.44,6.87 -6.26,11.67 -10.75,10.73 -4.49,-0.95 -6.96,-7.29 -5.51,-14.16" /><path
         id="path320"
         style="fill:#17282f;fill-opacity:1;fill-rule:nonzero;stroke:none"
         d="m 1920.98,2772.66 c 1.45,-6.87 6.26,-11.67 10.75,-10.73 4.5,0.95 6.97,7.29 5.52,14.16 -1.45,6.87 -6.26,11.68 -10.76,10.73 -4.49,-0.94 -6.96,-7.28 -5.51,-14.16" /><path
         id="path322"
         style="fill:#17282f;fill-opacity:1;fill-rule:nonzero;stroke:none"
         d="m 1924.59,2786.02 15.51,8.24 c 0,0 -5.76,-14.68 -15.51,-8.24" /><path
         id="path324"
         style="fill:#f14358;fill-opacity:1;fill-rule:nonzero;stroke:none"
         d="m 1902.93,2756.53 c 0,0 17.89,-27.13 33.74,-38.7 -7.29,-10.38 -23.53,-9.76 -23.53,-9.76 l -10.21,48.46" /><path
         id="path326"
         style="fill:#17282f;fill-opacity:1;fill-rule:nonzero;stroke:none"
         d="m 1895.4,2676.24 0.84,2.12 c -0.24,1.11 -1.33,1.82 -2.45,1.59 -30.08,-6.33 -48.68,11.76 -48.87,11.94 l -2.91,-0.01 v -2.91 c 0.81,-0.81 20.29,-19.87 52.63,-13.06 l 0.76,0.33" /><path
         id="path328"
         style="fill:#17282f;fill-opacity:1;fill-rule:nonzero;stroke:none"
         d="m 1816.13,2777.09 1.37,1.63 c 7.83,16.63 22.85,18.89 23.01,18.92 2.27,0.31 3.84,2.4 3.52,4.65 -0.31,2.25 -2.39,3.83 -4.65,3.52 -0.79,-0.12 -19.62,-2.94 -29.35,-23.58 -0.97,-2.06 -0.08,-4.52 1.98,-5.49 1.38,-0.65 2.94,-0.47 4.12,0.35" /><path
         id="path330"
         style="fill:#17282f;fill-opacity:1;fill-rule:nonzero;stroke:none"
         d="m 1950.22,2816.53 0.59,0.5 c 1.6,1.63 1.57,4.24 -0.05,5.84 -16.3,15.98 -34.93,12.08 -35.72,11.91 -2.23,-0.5 -3.63,-2.69 -3.14,-4.92 0.49,-2.22 2.68,-3.62 4.9,-3.14 0.7,0.15 15.22,2.97 28.18,-9.74 1.43,-1.42 3.64,-1.56 5.24,-0.45" /><path
         id="path332"
         style="fill:#f46b74;fill-opacity:1;fill-rule:nonzero;stroke:none"
         d="m 2157.55,2470.74 c 7.71,-8.94 17.31,-19.38 26.32,-28.98 9.22,-9.76 18.69,-19.34 28.36,-28.7 19.29,-18.77 39.03,-37.09 59.73,-54.02 41.4,-33.71 85.2,-64.19 131.93,-85.36 44.04,-19.89 97.54,-28.5 151.25,-32.27 26.99,-2.04 54.39,-2.72 81.87,-2.18 27.37,0.18 55.47,1.6 82.26,3.64 l 8.16,-43.34 c -57.13,-14.89 -114.19,-22.61 -173.35,-25.17 -29.5,-0.85 -59.39,-0.26 -89.61,3.37 -30.16,3.64 -61.04,9.89 -91.31,21.56 -28.88,11.07 -56.3,24.68 -82.21,40.19 -26.01,15.37 -50.62,32.52 -73.99,50.94 -23.42,18.38 -45.92,37.68 -67.2,58.22 -10.61,10.3 -20.99,20.83 -31.16,31.63 -10.36,10.95 -19.7,21.48 -30.08,34.25 l 69.03,56.22" /><path
         id="path334"
         style="fill:#f46b74;fill-opacity:1;fill-rule:nonzero;stroke:none"
         d="m 2708.33,2195.18 86.11,13.49 -71.09,67.69 c 0,0 -33.75,-27.37 -33.72,-63.56 l 18.7,-17.62" /><path
         id="path336"
         style="fill:#f46b74;fill-opacity:1;fill-rule:nonzero;stroke:none"
         d="m 2840.79,2277.33 -59.87,33.74 -57.57,-34.71 71.09,-67.69 46.35,68.66" /><path
         id="path338"
         style="fill:#17282f;fill-opacity:1;fill-rule:nonzero;stroke:none"
         d="m 2096.44,2549.32 c 37.03,-0.88 110.74,-106.99 110.74,-106.99 l -106.06,-131.55 c 0,0 -61.81,86.59 -59.75,134.7 2.14,50.11 12.83,104.84 55.07,103.84" /><path
         id="path340"
         style="fill:#406fbf;fill-opacity:1;fill-rule:nonzero;stroke:none"
         d="m 2885.8,402.789 c -10.17,-7.43 -22.85,-18.66 -22.68,-24.508 0.01,-0.73 0.23,-1.691 1.74,-2.59 2.8,-1.66 5.28,-1.953 7.58,-0.882 5.41,2.511 10.29,12.832 13.36,27.98 z m -20.01,-32.07 c -1,0.34 -2.01,0.82 -3.03,1.422 -3.02,1.8 -3.72,4.269 -3.77,6.019 -0.31,11.121 25.63,28.93 28.59,30.93 l 2.27,0.019 0.92,-2.07 c -1.89,-11.43 -6.57,-31.309 -16.59,-35.969 -2.66,-1.238 -5.47,-1.359 -8.39,-0.351" /><path
         id="path342"
         style="fill:#406fbf;fill-opacity:1;fill-rule:nonzero;stroke:none"
         d="m 2883.54,407.129 c -7.97,2.742 -21.15,6.101 -27.76,2.91 -1.94,-0.937 -3.16,-2.367 -3.73,-4.398 -0.73,-2.551 0.13,-3.52 0.96,-4.082 5.04,-3.387 21.88,0.261 31.18,5.339 z m -30.57,-10.09 -2.26,1.102 c -1.59,1.07 -4.04,3.621 -2.63,8.629 0.9,3.171 2.88,5.519 5.91,6.992 11.38,5.488 34.56,-4.071 35.54,-4.481 l 1.25,-1.633 -0.78,-1.91 c -6.95,-5.367 -27.35,-12.027 -37.03,-8.699" /><path
         id="path344"
         style="fill:#406fbf;fill-opacity:1;fill-rule:nonzero;stroke:none"
         d="m 2032.03,224.141 c -1.78,0 -3.17,-0.27 -4.06,-0.871 -0.42,-0.29 -0.85,-0.75 -0.78,-1.969 0.16,-2.91 1.34,-5.153 3.61,-6.871 6.06,-4.578 20.34,-5.18 38.83,-1.77 -12.71,5.531 -29.31,11.481 -37.6,11.481 z m 16.45,-17.821 c -7.99,0 -15.42,1.231 -20.17,4.821 -3.24,2.461 -5,5.789 -5.24,9.929 -0.18,3.071 1.31,4.75 2.59,5.61 9.37,6.351 44.55,-9.629 51.51,-12.899 l 1.17,-2.09 -1.6,-1.793 c -7.5,-1.66 -18.31,-3.578 -28.26,-3.578" /><path
         id="path346"
         style="fill:#406fbf;fill-opacity:1;fill-rule:nonzero;stroke:none"
         d="m 2050.6,244.809 -1.39,-0.079 c -2.16,-0.261 -3.33,-0.898 -3.46,-1.91 -0.77,-5.648 15.47,-20.55 27.36,-27.07 -2.72,9.012 -10.15,29.059 -22.51,29.059 z m 25.69,-34.95 -0.78,0.153 c -11.66,4.769 -35.17,23.617 -33.85,33.359 0.29,2.141 1.74,4.82 7.06,5.449 20.43,2.461 29.22,-34.851 29.58,-36.441 l -0.67,-2.027 -1.34,-0.493" /><path
         id="path348"
         style="fill:#17282f;fill-opacity:1;fill-rule:nonzero;stroke:none"
         d="m 1846.91,2769.67 15.5,8.23 c 0,0 -5.75,-14.67 -15.5,-8.23" /><path
         id="path350"
         style="fill:#406fbf;fill-opacity:1;fill-rule:nonzero;stroke:none"
         d="m 2359.32,1830.75 c 0,0 -177.71,-145.23 -111.63,-464.57 38.97,-188.3 156.55,-284.03 259.41,-263.14 102.86,20.89 173.78,154.89 136.22,343.48 -63.71,319.82 -284,384.23 -284,384.23" /><path
         id="path352"
         style="fill:#5d87cd;fill-opacity:1;fill-rule:nonzero;stroke:none"
         d="m 2414.6,1114.39 c -72.89,32.32 -139.44,119.06 -166.91,251.79 -10.35,50.05 -14.72,95.83 -14.73,137.44 -0.01,223.86 126.36,327.13 126.36,327.13 0,0 86.83,-25.38 167.22,-123.42 -17.18,-48.37 -32.74,-97.58 -46.49,-147.57 -38.91,-142.05 -62.65,-290.9 -65.4,-442.9 -0.02,-0.83 -0.03,-1.64 -0.05,-2.47" /><path
         id="path354"
         style="fill:#406fbf;fill-opacity:1;fill-rule:nonzero;stroke:none"
         d="m 3479.52,2450.28 c 0,0 -326.36,72.57 -632.33,-290.8 -180.43,-214.26 -184.07,-435.08 -67.48,-534 116.58,-98.91 333.86,-59.36 515.88,153.55 308.68,361.07 183.93,671.25 183.93,671.25" /><path
         id="path356"
         style="fill:#406fbf;fill-opacity:1;fill-rule:nonzero;stroke:none"
         d="m 3051.04,3892.28 c 0,0 -72.92,-20.07 -95.57,-125.12 -13.36,-61.93 9.3,-106.45 43.09,-113.87 33.78,-7.42 73.01,23.51 86.84,85.34 23.43,104.87 -34.36,153.65 -34.36,153.65" /><path
         id="path358"
         style="fill:#406fbf;fill-opacity:1;fill-rule:nonzero;stroke:none"
         d="m 2472.99,659.75 c -42.78,150.391 -61.17,305.23 -58.34,457.11 2.75,152 26.49,300.85 65.4,442.9 19.54,71.04 42.74,140.5 69.04,208.24 13.09,33.89 27.09,67.31 41.69,100.33 7.06,16.63 14.99,32.82 22.44,49.21 l 11.17,23.75 10.96,22.98 c 58.25,122.57 113.71,245.81 163.81,370.95 50.08,125.1 94.99,252.05 131.33,381.31 36.25,129.21 64.05,260.82 77.49,394.15 13.32,133.17 12.26,268.44 -12.39,400.93 -24.56,132.24 -74.02,261.41 -150.64,375.62 88.81,-104.89 154.46,-230.73 195.09,-364.68 40.82,-134.11 57.84,-275.29 59.43,-415.82 1.52,-140.74 -12.17,-281.27 -34.85,-419.77 -22.76,-138.58 -54.63,-275.31 -91.88,-410.11 -37.25,-134.83 -80.1,-267.75 -125.44,-399.07 l -8.52,-24.6 -4.28,-12.28 -3.87,-11.63 c -5.03,-15.52 -10.58,-30.88 -15.2,-46.48 -9.76,-31.05 -18.88,-62.2 -27.08,-93.47 -16.52,-62.51 -29.9,-125.37 -39.81,-188.25 -19.7,-125.74 -24.94,-251.7 -13.32,-373.88 11.54,-122.13 40.01,-240.479 85.1,-349.952 L 2472.99,659.75" /><path
         id="path360"
         style="fill:#3563b7;fill-opacity:1;fill-rule:nonzero;stroke:none"
         d="m 2750.38,1017.25 h -334.53 c -0.99,23.15 -1.48,46.25 -1.48,69.32 0,10.11 0.09,20.2 0.28,30.29 2.75,152 26.49,300.85 65.4,442.9 19.54,71.04 42.74,140.5 69.04,208.24 13.09,33.89 27.09,67.31 41.69,100.33 7.06,16.63 14.99,32.82 22.44,49.21 l 11.17,23.75 10.96,22.98 c 58.25,122.57 113.71,245.81 163.81,370.95 13.86,34.63 27.33,69.42 40.33,104.35 14.43,3.14 28.4,7.87 41.75,14.18 80.24,37.97 130.13,129.36 130.16,249.89 0.01,58.14 -11.58,123.07 -36.95,192.04 14.76,71.09 26.25,142.79 33.53,215 5.47,54.62 8.51,109.59 8.5,164.59 -0.02,79.08 -6.35,158.19 -20.89,236.34 -24.56,132.24 -74.02,261.41 -150.64,375.62 88.81,-104.89 154.46,-230.73 195.09,-364.68 25.16,-82.64 41.27,-167.95 50.3,-254.16 -39.56,-101.32 -34.94,-210.37 5.69,-304.34 -0.59,-10.18 -1.24,-20.38 -1.96,-30.55 -0.51,-7.24 -1.06,-14.46 -1.63,-21.69 -0.88,-10.88 -1.82,-21.75 -2.84,-32.62 -0.67,-7.22 -1.38,-14.46 -2.12,-21.68 -1.11,-10.88 -2.29,-21.75 -3.54,-32.61 -0.83,-7.23 -1.69,-14.47 -2.58,-21.69 -1.34,-10.88 -2.75,-21.75 -4.22,-32.61 -0.97,-7.24 -1.98,-14.46 -3.01,-21.69 -1.56,-10.88 -3.17,-21.75 -4.84,-32.61 -1.12,-7.24 -2.26,-14.46 -3.42,-21.69 -0.41,-2.55 -0.83,-5.1 -1.25,-7.65 -1.36,-8.33 -2.77,-16.65 -4.2,-24.96 -1.25,-7.24 -2.52,-14.46 -3.81,-21.69 -1.95,-10.88 -3.96,-21.75 -6.01,-32.61 -1.37,-7.23 -2.77,-14.47 -4.18,-21.68 -2.13,-10.89 -4.32,-21.76 -6.55,-32.62 -12.46,-60.6 -26.46,-120.82 -41.68,-180.68 -7.22,-28.43 -14.73,-56.78 -22.47,-85.04 -0.99,-3.62 -1.98,-7.22 -2.98,-10.83 -37.25,-134.83 -80.1,-267.75 -125.44,-399.07 l -8.52,-24.6 -4.28,-12.28 -3.87,-11.63 c -5.03,-15.52 -10.58,-30.88 -15.2,-46.48 -9.76,-31.05 -18.88,-62.2 -27.08,-93.47 -5.16,-19.51 -10.01,-39.06 -14.54,-58.63 -9.99,-43.13 -18.45,-86.37 -25.27,-129.62 -12.73,-81.29 -19.43,-162.67 -19.43,-243.06 0.01,-43.96 2.01,-87.63 6.11,-130.82 3.5,-37.04 8.56,-73.74 15.16,-109.94" /><path
         id="path362"
         style="fill:#406fbf;fill-opacity:1;fill-rule:nonzero;stroke:none"
         d="m 3162.28,1017.25 -10.3,-114.41 -66.56,-743.34 c -2.35,-26.211 -24.31,-46.289 -50.62,-46.289 h -844.26 c -26.31,0 -48.27,20.078 -50.61,46.289 l -66.56,743.34 -10.3,114.41 h 1099.21" /><path
         id="path364"
         style="fill:#406fbf;fill-opacity:1;fill-rule:nonzero;stroke:none"
         d="m 3136.37,336 -9.96,0.891 23.89,266.871 9.96,-0.891 L 3136.37,336" /><path
         id="path366"
         style="fill:#406fbf;fill-opacity:1;fill-rule:nonzero;stroke:none"
         d="m 3167.26,681 -9.97,0.891 5.65,63.05 9.96,-0.902 -5.64,-63.039" /><path
         id="path368"
         style="fill:#406fbf;fill-opacity:1;fill-rule:nonzero;stroke:none"
         d="m 2446.77,3372.13 c 0,0 -188.56,-251.1 3.74,-653.7 113.4,-237.4 300.92,-326.09 430.73,-264.68 129.81,61.41 180.17,262.64 68.55,500.88 -189.3,404.03 -503.02,417.5 -503.02,417.5" /><path
         id="path370"
         style="fill:#3563b7;fill-opacity:1;fill-rule:nonzero;stroke:none"
         d="m 2795.37,2434.9 c -80.6,0 -170.32,44.48 -247.82,133.21 -0.83,0.96 -1.67,1.92 -2.5,2.88 -34.66,40.25 -66.81,89.39 -94.54,147.44 -8.49,17.79 -16.24,35.27 -23.3,52.46 -0.84,2.05 -1.68,4.12 -2.5,6.15 -45.01,111.74 -60.67,210.44 -60.65,293.76 0.05,191.25 82.71,301.33 82.71,301.33 0,0 313.72,-13.47 503.02,-417.5 42.62,-90.97 61.63,-176.54 61.61,-250.99 -0.03,-120.53 -49.92,-211.92 -130.16,-249.89 -13.35,-6.31 -27.32,-11.04 -41.75,-14.18 -14.3,-3.12 -29.04,-4.67 -44.12,-4.67" /><path
         id="path372"
         style="fill:#3563b7;fill-opacity:1;fill-rule:nonzero;stroke:none"
         d="M 3151.98,902.84 H 2073.37 l -10.3,114.41 h 1099.21 l -10.3,-114.41" /><path
         id="path374"
         style="fill:#406fbf;fill-opacity:1;fill-rule:nonzero;stroke:none"
         d="m 3227.63,960.039 h -1229.9 c -13.2,0 -23.89,10.699 -23.89,23.891 v 150.53 c 0,13.19 10.69,23.89 23.89,23.89 h 1229.9 c 13.19,0 23.88,-10.7 23.88,-23.89 V 983.93 c 0,-13.192 -10.69,-23.891 -23.88,-23.891" /><path
         id="path376"
         style="fill:#406fbf;fill-opacity:1;fill-rule:nonzero;stroke:none"
         d="m 3825.55,2952.19 c -94.41,-199.97 -333.04,-285.54 -533.01,-191.14 -199.97,94.41 -285.54,333.04 -191.14,533.01 94.41,199.97 333.04,285.55 533.01,191.14 199.97,-94.4 285.54,-333.04 191.14,-533.01" /><path
         id="path378"
         style="fill:#3b69bb;fill-opacity:1;fill-rule:nonzero;stroke:none"
         d="m 3198.14,2916.59 c -75.28,96.79 -94.61,231.56 -38.67,350.09 57.38,121.55 178.2,192.77 304.22,192.77 48.1,0 96.94,-10.36 143.33,-32.26 153.42,-72.42 226.64,-245.97 177.67,-403.51 38.1,149.19 -33.52,309.35 -177.89,377.42 -45.21,21.36 -92.85,31.47 -139.73,31.47 -122.92,0 -240.75,-69.46 -296.73,-187.98 -52.06,-110.17 -37.3,-234.75 27.8,-328" /><path
         id="path380"
         style="fill:#fafaf9;fill-opacity:1;fill-rule:nonzero;stroke:none"
         d="m 3586.94,3065.02 -39.98,-84.69 c -3.12,-6.6 -8.3,-11.15 -15.53,-13.66 -7.24,-2.52 -14.25,-2.17 -21.04,1.03 l -74.5,35.18 -28.17,-59.66 c -3.21,-6.8 -8.36,-11.42 -15.45,-13.88 -7.1,-2.47 -13.94,-2.14 -20.54,0.97 -6.98,3.3 -11.78,8.47 -14.38,15.51 -2.62,7.04 -2.31,13.96 0.9,20.75 l 28.44,60.24 -73.92,34.9 c -6.6,3.11 -11.21,8.19 -13.81,15.24 -2.61,7.04 -2.31,13.96 0.9,20.75 3.2,6.78 8.31,11.44 15.31,13.94 6.99,2.52 13.88,2.17 20.68,-1.04 l 172.86,-81.61 16.63,35.22 -172.28,81.33 c -6.8,3.21 -11.47,8.26 -14.02,15.16 -2.56,6.9 -2.19,13.85 1.11,20.83 l 39.84,84.4 c 3.21,6.78 8.3,11.43 15.31,13.94 6.99,2.51 13.89,2.17 20.68,-1.04 l 73.34,-34.63 28.16,59.67 c 3.12,6.59 8.1,11.24 14.95,13.94 6.84,2.69 14.15,2.21 21.91,-1.45 6.59,-3.11 11.15,-8.17 13.66,-15.17 2.51,-7 2.16,-13.89 -1.04,-20.68 l -28.17,-59.66 75.08,-35.45 c 6.79,-3.2 11.52,-8.4 14.18,-15.59 2.65,-7.18 2.43,-14.08 -0.69,-20.67 -3.2,-6.79 -8.45,-11.49 -15.73,-14.1 -7.28,-2.61 -14.32,-2.32 -21.11,0.89 l -172.87,81.61 -16.49,-34.92 172.29,-81.34 c 6.79,-3.21 11.51,-8.4 14.17,-15.58 2.65,-7.2 2.43,-14.09 -0.68,-20.68" /></g></g></svg>