<svg width="397" height="311" viewBox="0 0 397 311" fill="none" xmlns="http://www.w3.org/2000/svg">
<path d="M29.7218 309.817C29.7218 309.817 -13.729 252.333 22.378 190.095C54.4086 134.873 87.964 157.353 119.248 169.852C141.933 178.913 164.483 162.235 193.121 106.054C232.174 29.4389 367.557 75.9066 342.871 193.788C330.921 250.838 379.227 252.908 354.612 309.932L29.7218 309.817Z" fill="#81B0DA"/>
<path d="M241.893 309.05C241.924 309.076 241.966 309.088 242.018 309.114H266.155C265.927 308.053 265.138 306.124 262.379 305.574C258.635 304.82 252.141 302.149 250.689 296.232C250.648 296.04 250.606 295.849 250.565 295.657C249.413 289.344 241.053 297.587 241.053 297.587C241.053 297.587 241.022 297.842 240.991 298.264C240.794 300.577 240.296 308.066 241.893 309.05Z" fill="#2C3A64"/>
<path d="M273.82 202.223C273.82 202.223 258.116 270.94 253.397 297.51C253.397 297.51 241.748 300.385 239.933 295.874C239.933 295.874 243.688 221.048 250.596 211.54C259.185 199.718 273.831 202.223 273.831 202.223H273.82Z" fill="#2C3A64"/>
<path d="M275.127 132.585C275.127 132.585 274.712 129.505 275.356 126.949C275.999 124.393 278.685 117.633 277.835 115.294C276.984 112.943 273.903 106.642 272.005 106.655C270.107 106.668 274.007 113.415 273.468 115.511C272.928 117.62 272.752 117.786 272.099 117.607C271.435 117.416 270.439 113.39 270.097 114.336C269.765 115.281 269.962 121.505 270.584 123.064C271.206 124.623 269.92 133.403 269.92 133.403L275.117 132.598L275.127 132.585Z" fill="#ED975D"/>
<path d="M276.642 131.218C276.642 131.218 272.441 128.279 269.184 129.518C269.184 129.518 262.732 152.42 259.174 169.251C252.359 148.509 248.158 127.831 248.158 127.831C248.158 127.831 239.891 141.902 236.904 151.257C233.917 160.612 251.758 193.443 258.687 196.012C265.916 198.696 264.599 196.012 268.675 193.137C269.982 191.041 274.183 180.6 276.642 131.218Z" fill="#FFFFDB"/>
<path d="M295.665 310.124C295.696 310.149 295.738 310.162 295.79 310.188H319.927C319.698 309.127 318.91 307.197 316.151 306.647C312.407 305.893 305.913 303.222 304.461 297.305C304.42 297.114 304.378 296.922 304.337 296.73C303.185 290.417 294.825 298.66 294.825 298.66C294.825 298.66 294.804 298.916 294.763 299.337C294.566 301.651 294.068 309.14 295.665 310.124Z" fill="#2C3A64"/>
<path d="M278.509 200.562C278.509 200.562 276.154 201.852 273.25 204.485C272.918 202.415 272.441 201.073 272.441 201.073C251.727 194.427 196.264 194.964 196.264 194.964C196.264 194.964 184.346 198.645 187.842 220.025C191.068 239.706 244.31 230.594 261.508 224.69C261.913 224.549 262.296 224.409 262.68 224.255C261.311 236.793 270.895 254.684 279.287 271.132C286.205 284.704 292.086 298.43 292.086 298.43C295.561 301.088 307.22 299.555 307.22 299.555C299.856 273.905 278.498 200.549 278.498 200.549L278.509 200.562Z" fill="#35488B"/>
<path d="M232.786 120.879C232.786 120.879 238.73 144.343 247.671 149.583C247.671 149.583 248.511 142.464 247.069 137.058C248.252 135.946 249.289 134.911 250.202 133.978C253.231 130.873 254.766 128.879 254.766 128.879L253.438 117.441L252.536 109.684C251.084 111.741 249.58 113.415 248.086 114.796C240.369 121.889 232.786 120.879 232.786 120.879Z" fill="#FFB27D"/>
<path d="M248.086 114.796C248.086 114.796 245.088 124.956 250.202 133.978C253.231 130.873 254.766 128.879 254.766 128.879L253.438 117.441C250.243 115.243 248.086 114.783 248.086 114.783V114.796Z" fill="#ED975D"/>
<path d="M257.037 131.116C257.037 131.116 243.864 120.355 249.434 110.348C255.004 100.342 257.048 92.2137 265.699 98.6675C274.339 105.121 273.831 110.297 272.638 114.195C271.435 118.093 260.606 133.659 257.037 131.116Z" fill="#FFB27D"/>
<path d="M250.959 89.402C250.897 89.1336 250.658 88.7886 249.984 88.3285C249.984 88.3285 250.7 88.2263 251.447 88.648C252.069 87.5362 253.407 85.7342 255.253 86.207C255.253 86.207 254.133 86.2582 253.521 87.4595C256.394 86.1687 261.176 86.846 272.005 94.7696C286.288 105.211 276.652 114.157 274.163 114.412C271.673 114.668 268.375 107.856 264.651 106.041C260.927 104.239 257.67 110.31 256.093 110.463C254.527 110.617 255.627 109.339 254.351 107.409C253.075 105.479 251.561 108.802 251.156 111.307C250.752 113.812 247.329 115.371 247.329 115.371C247.329 115.371 247.329 115.371 246.271 110.911C245.213 106.45 248.241 92.1114 250.388 89.9516C250.575 89.7599 250.772 89.5682 250.959 89.3765V89.402Z" fill="black"/>
<path d="M248.812 159.973C244.86 171.513 241.24 178.887 240.763 179.858C239.062 183.334 237.226 186.516 235.556 189.302C235.504 189.392 235.452 189.481 235.4 189.571C232.102 195.041 227.061 196.536 227.216 197.916C227.527 200.664 221.895 207.258 212.601 210.185C201.824 213.584 189.325 215.207 186.172 210.722C185.114 209.214 184.761 206.44 184.886 202.99C185.114 195.731 192.541 166.49 192.541 166.49C205.226 119.179 241.572 119.179 241.572 119.179C241.572 119.179 240.856 130.515 249.777 134.451C249.787 134.477 251.872 151.091 248.822 159.998L248.812 159.973Z" fill="#FFFFDB"/>
<path d="M227.403 198.274C227.714 201.022 221.905 207.233 212.612 210.159C204.863 191.156 219.592 147.666 219.592 147.666L235.556 189.277C232.185 194.875 227.237 196.868 227.392 198.261L227.403 198.274Z" fill="#FFFFDB"/>
<path d="M270.159 193.635C270.159 193.635 275.615 196.012 277.108 197.162C278.602 198.312 282.046 204.127 282.44 206.159C282.824 208.191 283.28 214.185 283 215.182C282.72 216.179 278.54 212.345 277.617 208.728C276.693 205.111 274.308 204.14 274.391 204.332C274.484 204.523 275.708 209.15 275.449 209.354C275.189 209.559 274.08 209.904 273.073 207.322C272.067 204.741 270.076 202.849 270.449 200.178C270.823 197.507 270.159 193.622 270.159 193.622V193.635Z" fill="#FFB27D"/>
<path d="M240.773 179.845C239.072 183.321 237.236 186.504 235.566 189.29C235.514 189.379 235.462 189.469 235.411 189.558C233.222 188.523 231.044 186.44 229.955 184.536C227.434 180.165 227.237 153.864 227.237 153.864C227.237 153.864 237.527 169.532 240.784 179.858L240.773 179.845Z" fill="#FFFFDB"/>
<path d="M272.254 194.223C272.254 194.223 247.35 185.635 234.571 181.877C235.691 163.295 239.383 107.128 216.17 129.62C216.17 129.62 214.417 189.814 225.671 202.006C225.671 202.006 261.788 202.951 268.665 202.427C268.665 202.427 270.688 201.137 271.186 200.28C272.794 197.533 272.254 194.223 272.254 194.223Z" fill="#FFFFDB"/>
<path d="M128.054 284.347L128.967 284.245C128.614 276.001 123.552 271.388 123.552 271.388C120.005 267.516 118.854 263.273 118.854 263.273C118.854 263.273 124.839 254.672 119.227 249.215C119.227 249.215 115.13 246.16 111.79 246.403C111.79 246.403 116.53 256.193 114.995 257.164C113.46 258.135 110.358 245.79 110.358 245.79C110.358 245.79 101.033 244.678 98.0254 246.454C98.0254 246.454 106.002 254.493 104.322 254.979C102.641 255.464 94.0319 247.566 94.0319 247.566C94.0319 247.566 85.35 249.381 85.8168 255.911C86.2836 262.442 89.2709 264.448 90.5882 264.282C91.9055 264.103 99.5916 260.487 99.7576 261.816C99.9236 263.145 95.2974 267.477 92.0507 267.682C92.0507 267.682 98.1706 276.001 102.237 273.599C106.303 271.196 106.655 267.388 109.186 265.969C111.717 264.538 113.885 264.551 112.837 266.008C111.79 267.465 107.205 268.883 105.753 272.04C104.301 275.196 103.004 277.331 107.215 276.551C111.427 275.771 118.262 271.976 118.563 267.631C118.573 267.439 118.584 267.26 118.605 267.081C118.615 267.426 118.563 267.631 118.563 267.631C119.445 267.822 121.26 269.816 122.577 271.375C122.785 271.656 123.075 272.014 123.511 272.5C123.666 272.704 123.801 272.87 123.905 272.998C126.581 276.602 128.054 284.36 128.054 284.36V284.347Z" fill="#82B378"/>
<path d="M139.765 252.473C139.765 252.473 130.253 245.905 134.693 236.997C134.693 236.997 138.24 231.527 142.047 230.121C142.047 230.121 140.014 243.4 142.047 243.719C144.08 244.026 143.447 228.716 143.447 228.716C143.447 228.716 153.467 222.773 157.398 223.246C157.398 223.246 151.185 236.217 153.208 235.911C155.241 235.604 162.211 222.466 162.211 222.466C162.211 222.466 172.49 220.128 174.129 227.617C175.779 235.118 173.113 238.863 171.598 239.336C170.074 239.809 160.313 239.642 160.562 241.214C160.811 242.774 167.408 245.278 171.09 243.873C171.09 243.873 167.034 256.218 161.703 255.592C156.371 254.966 154.722 250.902 151.434 250.595C148.136 250.288 145.729 251.374 147.378 252.473C149.028 253.573 154.608 252.831 157.274 255.617C159.94 258.403 162.097 260.129 157.149 261.381C152.202 262.633 143.323 261.854 141.549 257.164C139.775 252.473 139.775 252.473 139.775 252.473H139.765Z" fill="#A8D29F"/>
<path d="M169.451 229.968C169.451 229.968 142.814 240.601 139.775 252.473C139.775 252.473 139.9 257.79 137.234 263.886C137.234 263.886 133.126 271.567 135.47 280.922L136.528 280.576C136.528 280.576 135.605 271.298 137.348 265.918C137.42 265.726 137.524 265.432 137.649 265.087C137.96 264.32 138.178 263.771 138.313 263.362C139.267 260.959 140.636 257.828 141.549 257.164C141.549 257.164 135.585 246.85 169.451 229.968Z" fill="#82B378"/>
<path d="M124.631 243.413C124.631 243.413 137.171 234.761 131.321 223.016C131.321 223.016 126.643 215.808 121.623 213.955C121.623 213.955 124.299 231.463 121.623 231.872C118.947 232.281 119.787 212.102 119.787 212.102C119.787 212.102 106.583 204.28 101.396 204.894C101.396 204.894 109.591 221.993 106.915 221.584C104.238 221.175 95.0483 203.872 95.0483 203.872C95.0483 203.872 81.5017 200.779 79.3338 210.67C77.1556 220.562 80.6719 225.508 82.6738 226.121C84.6757 226.735 97.5585 226.53 97.2162 228.588C96.8843 230.645 88.1921 233.943 83.3377 232.09C83.3377 232.09 88.6899 248.358 95.7122 247.54C102.734 246.71 104.913 241.355 109.259 240.946C113.605 240.537 116.779 241.981 114.611 243.413C112.433 244.857 105.079 243.885 101.573 247.566C98.0564 251.247 95.2143 253.509 101.739 255.157C108.263 256.806 119.963 255.771 122.308 249.598C124.652 243.413 124.652 243.413 124.652 243.413H124.631Z" fill="#A8D29F"/>
<path d="M127.982 258.455C124.465 250.416 124.631 243.413 124.631 243.413C120.617 227.757 85.5058 213.75 85.5058 213.75C130.149 236 122.287 249.598 122.287 249.598C123.49 250.467 125.295 254.582 126.55 257.752C126.727 258.288 127.007 259.03 127.432 260.052C127.598 260.512 127.733 260.883 127.826 261.151C130.129 268.231 128.905 280.474 128.905 280.474L130.295 280.934C133.386 268.602 127.971 258.467 127.971 258.467L127.982 258.455Z" fill="#82B378"/>
<path d="M100.494 277.394C100.494 294.111 111.489 307.657 125.056 307.657C127.888 307.657 130.606 307.069 133.137 305.983C142.731 301.868 149.619 290.622 149.619 277.394H100.494Z" fill="#ED7D2B"/>
<path d="M116.665 277.394C116.665 288.73 118.874 300.283 126.363 305.459C127.608 306.328 131.778 305.382 133.147 305.97C142.742 301.855 149.629 290.609 149.629 277.382H116.675L116.665 277.394Z" fill="#F99746"/>
<path d="M125.057 307.657C126.052 307.811 121.032 307.657 122.069 307.657C135.637 307.657 146.632 294.111 146.632 277.394H140.533C140.533 292.833 137.193 305.804 125.067 307.657H125.057Z" fill="#FFB176"/>
<path d="M100.152 309.204H149.961C149.961 308.168 149.619 307.235 149.069 306.558C148.519 305.881 147.762 305.459 146.922 305.459H103.181C101.511 305.459 100.152 307.133 100.152 309.191V309.204Z" fill="#ED7D2B"/>
<path d="M123.49 309.204H149.961C149.961 308.168 149.619 307.235 149.069 306.558C148.519 305.881 147.762 305.459 146.922 305.459H126.509C124.839 305.459 123.48 307.133 123.48 309.191L123.49 309.204Z" fill="#F99746"/>
<path d="M99.9341 278.327H150.428V277.394H99.9341V278.327Z" fill="#DB6A1F"/>
<path d="M250.99 231.182V243.016C250.99 245.457 249.372 247.464 247.38 247.464H190.601C188.62 247.464 187.002 245.47 187.002 243.016V231.182C187.002 228.741 188.62 226.735 190.601 226.735H247.38C249.362 226.735 250.99 228.729 250.99 231.182Z" fill="#F99746"/>
<path d="M250.99 240.857V243.016C250.99 245.457 249.372 247.464 247.38 247.464H190.601C188.62 247.464 187.002 245.47 187.002 243.016V240.678H249.963C250.316 240.678 250.669 240.742 251 240.857H250.99Z" fill="#ED7D2B"/>
<path d="M200.662 247.464L198.1 259.413L187.448 309.127H186.327L192.489 267.886C192.499 267.848 192.499 267.809 192.509 267.758L195.559 247.362L200.673 247.464H200.662Z" fill="#E8C6A7"/>
<path d="M200.662 247.464L198.1 259.413C197.955 259.502 193.298 262.467 192.499 267.758L195.549 247.362L200.662 247.464Z" fill="#C69D7B"/>
<path d="M250.99 309.127H249.87L241.188 268.627V268.615L239.217 259.4L236.655 247.451L241.769 247.349L243.511 259.017L244.818 267.746C244.829 267.784 244.829 267.835 244.839 267.873L251 309.114L250.99 309.127Z" fill="#E8C6A7"/>
<path d="M233.678 263.106L233.658 263.093C233.637 263.043 233.637 263.055 233.678 263.106Z" fill="#E8C6A7"/>
<path d="M243.501 259.017C242.557 260.704 241.261 263.886 241.178 268.615L239.207 259.4L236.645 247.451L241.759 247.349L243.501 259.017Z" fill="#C69D7B"/>
<path d="M183.595 77.9768C181.977 87.3828 179.695 95.9709 176.739 103.664C176.604 104.022 176.469 104.367 176.324 104.712C176.251 104.891 176.189 105.07 176.117 105.236C175.94 105.684 175.764 106.118 175.577 106.553C175.484 106.783 175.38 107.026 175.287 107.256C175.11 107.677 174.924 108.086 174.747 108.495C174.561 108.917 174.374 109.326 174.187 109.735C173.866 110.451 173.534 111.141 173.192 111.844C173.129 111.971 173.067 112.112 172.994 112.24C172.818 112.598 172.642 112.955 172.455 113.3C172.382 113.441 172.32 113.569 172.248 113.709C172.071 114.054 171.895 114.387 171.708 114.732C171.615 114.911 171.511 115.09 171.418 115.281C171.241 115.614 171.065 115.933 170.878 116.253C170.785 116.432 170.681 116.598 170.578 116.777C170.567 116.789 170.557 116.815 170.547 116.828C170.37 117.134 170.194 117.441 170.007 117.748C169.935 117.863 169.872 117.991 169.8 118.106C169.623 118.4 169.437 118.706 169.26 118.988C169.167 119.141 169.063 119.307 168.97 119.46C168.794 119.742 168.617 120.023 168.431 120.317C168.244 120.611 168.057 120.905 167.86 121.186C167.684 121.454 167.507 121.722 167.321 121.991C167.186 122.182 167.051 122.374 166.916 122.566L166.885 122.617C166.864 122.655 166.833 122.694 166.812 122.719C166.636 122.975 166.46 123.218 166.273 123.473C165.879 124.023 165.485 124.56 165.07 125.084C164.893 125.314 164.717 125.544 164.53 125.774C164.105 126.31 163.68 126.834 163.244 127.346C163.068 127.563 162.881 127.767 162.705 127.985C162.394 128.355 162.072 128.713 161.751 129.071L161.74 129.084C161.553 129.288 161.367 129.493 161.19 129.684C161.014 129.876 160.827 130.068 160.651 130.259C159.676 131.282 158.67 132.266 157.633 133.199C157.456 133.365 157.27 133.531 157.093 133.684C156.357 134.336 155.6 134.975 154.832 135.576C154.448 135.883 154.075 136.176 153.681 136.47C152.84 137.097 151.99 137.71 151.129 138.285C150.465 138.732 149.791 139.154 149.106 139.576C148.069 140.202 147.011 140.79 145.932 141.352C145.756 141.442 145.569 141.544 145.393 141.633C145.082 141.787 144.76 141.94 144.449 142.094C143.993 142.311 143.526 142.528 143.059 142.733C142.022 143.193 140.974 143.614 139.906 144.011C139.522 144.151 139.149 144.292 138.765 144.42C137.292 144.931 135.778 145.378 134.242 145.774C133.06 146.068 131.867 146.336 130.643 146.567C127.843 147.103 124.928 147.448 121.92 147.589C121.432 147.614 120.934 147.64 120.436 147.653C119.71 147.678 118.984 147.691 118.237 147.691C117.356 147.691 116.464 147.678 115.561 147.653C108.041 147.448 100.262 146.362 92.7416 144.394C92.1711 144.241 91.611 144.087 91.0405 143.934C84.3709 142.055 77.9399 139.461 72.1209 136.125C71.9757 136.036 71.8305 135.959 71.6749 135.87C70.2123 135.014 68.7913 134.119 67.4117 133.173C52.0914 122.681 42.4241 106.374 46.6458 83.9195C53.2013 49.0303 92.7831 11.6619 128.133 2.49875C179.799 -10.8946 191.582 31.7519 183.626 77.964L183.595 77.9768Z" fill="#81B0DA"/>
<path d="M155.801 135.589C155.417 135.895 155.044 136.189 154.649 136.483C153.809 137.109 152.959 137.723 152.098 138.298C151.434 138.745 150.76 139.167 150.075 139.589C149.038 140.215 147.98 140.803 146.901 141.365C146.725 141.455 146.538 141.557 146.362 141.646C146.051 141.8 145.729 141.953 145.418 142.106H125.482C125.295 142.106 125.108 142.055 124.953 141.94C124.61 141.723 124.372 141.301 124.341 140.816V140.752V136.931C124.372 136.189 124.88 135.589 125.492 135.589H155.811H155.801Z" fill="#FFB93E"/>
<path d="M146.901 135.589V141.365C146.725 141.455 146.538 141.557 146.362 141.646V135.601H146.901V135.589Z" fill="#FFA412"/>
<path d="M141.798 142.094H142.337V135.589H141.798V142.094Z" fill="#FFA412"/>
<path d="M162.72 129.071L162.709 129.084C162.522 129.288 162.336 129.493 162.159 129.684C161.983 129.876 161.796 130.068 161.62 130.259C160.645 131.282 159.639 132.266 158.602 133.199C158.425 133.365 158.239 133.531 158.062 133.684C157.326 134.336 156.569 134.975 155.801 135.576H126.623C126.011 135.576 125.503 134.975 125.471 134.234C125.471 134.208 125.471 134.183 125.471 134.157V130.477C125.471 130.451 125.471 130.426 125.471 130.4C125.503 129.71 125.938 129.148 126.488 129.071C126.53 129.058 126.581 129.058 126.623 129.058H162.72V129.071Z" fill="#FFB93E"/>
<path d="M162.149 129.071V129.684C161.973 129.876 161.786 130.068 161.61 130.259V129.071H162.149Z" fill="#FFA412"/>
<path d="M158.591 129.071V133.199C158.415 133.365 158.228 133.531 158.052 133.684V129.071H158.591Z" fill="#FFA412"/>
<path d="M152.606 135.589H153.145V129.071H152.606V135.589Z" fill="#FFA412"/>
<path d="M147.503 135.589H148.042V129.071H147.503V135.589Z" fill="#FFA412"/>
<path d="M142.939 135.589H143.478V129.071H142.939V135.589Z" fill="#FFA412"/>
<path d="M123.127 122.566C123.044 122.566 122.961 122.579 122.878 122.604L122.847 122.617C122.412 122.758 122.08 123.192 121.997 123.742C121.986 123.78 121.986 123.818 121.986 123.857C121.986 123.882 121.986 123.895 121.986 123.921C121.986 123.946 121.986 123.972 121.986 123.997V127.678C121.986 127.703 121.986 127.729 121.986 127.755C121.986 127.793 121.986 127.818 121.997 127.857C122.007 127.921 122.017 127.985 122.028 128.048C122.163 128.662 122.609 129.109 123.138 129.109H162.719L162.73 129.096C163.051 128.739 163.373 128.381 163.684 128.01C163.871 127.806 164.047 127.588 164.223 127.371C164.659 126.86 165.095 126.323 165.51 125.799C165.696 125.569 165.873 125.339 166.049 125.109C166.454 124.585 166.858 124.048 167.252 123.499C167.439 123.243 167.615 123 167.792 122.745C167.812 122.706 167.844 122.668 167.864 122.643L167.895 122.591H123.127V122.566ZM166.049 122.566V125.084C166.454 124.56 166.858 124.023 167.252 123.473V122.566H166.049ZM166.049 122.566V125.084C166.454 124.56 166.858 124.023 167.252 123.473C167.439 123.218 167.615 122.975 167.792 122.719C167.812 122.681 167.844 122.643 167.864 122.617L167.895 122.566H166.049ZM166.049 122.566V125.084C166.454 124.56 166.858 124.023 167.252 123.473C167.439 123.218 167.615 122.975 167.792 122.719C167.812 122.681 167.844 122.643 167.864 122.617L167.895 122.566H166.049ZM166.049 122.566V125.084C166.454 124.56 166.858 124.023 167.252 123.473C167.439 123.218 167.615 122.975 167.792 122.719C167.812 122.681 167.844 122.643 167.864 122.617L167.895 122.566H166.049ZM166.049 122.566V125.084C166.454 124.56 166.858 124.023 167.252 123.473C167.439 123.218 167.615 122.975 167.792 122.719C167.812 122.681 167.844 122.643 167.864 122.617L167.895 122.566H166.049ZM166.049 122.566V125.084C166.454 124.56 166.858 124.023 167.252 123.473C167.439 123.218 167.615 122.975 167.792 122.719C167.812 122.681 167.844 122.643 167.864 122.617L167.895 122.566H166.049ZM166.049 122.566V125.084C166.454 124.56 166.858 124.023 167.252 123.473V122.566H166.049Z" fill="#FFB93E"/>
<path d="M148.478 129.084H123.003C122.453 129.084 122.007 128.483 121.976 127.742C121.976 127.716 121.976 127.691 121.976 127.665V123.984C121.976 123.959 121.976 123.933 121.976 123.908C121.976 123.882 121.976 123.869 121.976 123.844C122.017 123.23 122.349 122.732 122.774 122.591C122.785 122.591 122.806 122.579 122.816 122.579C122.878 122.566 122.94 122.553 123.003 122.553H145.356L145.366 122.604C145.729 124.508 146.559 127.128 148.478 129.058L148.488 129.071L148.478 129.084Z" fill="#FFA412"/>
<path d="M166.039 122.566V125.084C165.862 125.314 165.686 125.544 165.499 125.774V122.566H166.039Z" fill="#FFA412"/>
<path d="M164.213 122.566V127.346C164.037 127.563 163.85 127.767 163.674 127.985V122.566H164.213Z" fill="#FFA412"/>
<path d="M161.475 129.084H162.014V122.566H161.475V129.084Z" fill="#FFA412"/>
<path d="M158.114 129.084H158.653V122.566H158.114V129.084Z" fill="#FFA412"/>
<path d="M154.556 129.084H155.096V122.566H154.556V129.084Z" fill="#FFA412"/>
<path d="M149.111 129.084H149.65V122.566H149.111V129.084Z" fill="#FFA412"/>
<path d="M144.007 129.084H144.547V122.566H144.007V129.084Z" fill="#FFA412"/>
<path d="M139.443 129.084H139.983V122.566H139.443V129.084Z" fill="#FFA412"/>
<path d="M167.781 122.566V122.719C167.605 122.975 167.429 123.218 167.242 123.473V122.566H167.781Z" fill="#FFA412"/>
<path d="M167.854 116.265V116.099H167.677V122.566H167.885C168.02 122.374 168.155 122.183 168.289 121.991C168.476 121.722 168.652 121.454 168.829 121.186V116.253H167.854V116.265ZM171.526 116.726C171.495 116.674 171.463 116.611 171.422 116.559L171.412 116.547L171.401 116.534L171.37 116.495C171.36 116.483 171.349 116.47 171.329 116.457C171.318 116.444 171.308 116.432 171.287 116.419C171.266 116.393 171.235 116.368 171.204 116.342C171.163 116.304 171.132 116.278 171.09 116.253C171.069 116.24 171.049 116.227 171.038 116.214L171.007 116.202L170.976 116.189C170.903 116.15 170.841 116.138 170.768 116.112H170.748H170.737H170.717H170.696H170.685H170.665C170.634 116.112 170.603 116.112 170.582 116.112H123.034C122.422 116.112 121.914 116.713 121.882 117.454C121.882 117.48 121.882 117.505 121.882 117.531V121.211C121.882 121.237 121.882 121.262 121.882 121.288C121.882 121.326 121.882 121.377 121.893 121.416C121.965 122.016 122.339 122.502 122.826 122.604C122.847 122.604 122.868 122.617 122.878 122.617C122.93 122.63 122.982 122.63 123.023 122.63H167.854L167.885 122.579C168.02 122.387 168.155 122.195 168.289 122.004C168.476 121.735 168.652 121.467 168.829 121.198C169.026 120.917 169.213 120.623 169.399 120.329C169.586 120.048 169.762 119.767 169.939 119.473C170.042 119.32 170.136 119.166 170.229 119C170.416 118.706 170.592 118.412 170.768 118.119C170.841 118.004 170.914 117.888 170.976 117.761C171.163 117.454 171.339 117.147 171.515 116.841C171.526 116.828 171.536 116.802 171.546 116.789C171.536 116.764 171.526 116.751 171.515 116.738L171.526 116.726ZM167.854 116.265V116.099H167.677V122.566H167.885C168.02 122.374 168.155 122.183 168.289 121.991C168.476 121.722 168.652 121.454 168.829 121.186V116.253H167.854V116.265Z" fill="#FFB93E"/>
<path d="M148.374 122.617H122.899C122.878 122.617 122.857 122.617 122.837 122.617C122.816 122.617 122.795 122.617 122.774 122.604C122.287 122.528 121.903 121.952 121.872 121.275C121.872 121.25 121.872 121.224 121.872 121.198V117.518C121.872 117.492 121.872 117.467 121.872 117.441C121.903 116.7 122.349 116.099 122.899 116.099H145.241C145.252 116.15 145.262 116.202 145.273 116.265C145.646 118.157 146.476 120.687 148.322 122.566C148.343 122.579 148.353 122.591 148.364 122.617H148.374Z" fill="#FFA412"/>
<path d="M165.406 122.617H165.945V116.099H165.406V122.617Z" fill="#FFA412"/>
<path d="M163.57 122.617H164.109V116.099H163.57V122.617Z" fill="#FFA412"/>
<path d="M161.381 122.617H161.921V116.099H161.381V122.617Z" fill="#FFA412"/>
<path d="M158.01 122.617H158.56V116.099H158.01V122.617Z" fill="#FFA412"/>
<path d="M154.463 122.617H155.002V116.099H154.463V122.617Z" fill="#FFA412"/>
<path d="M149.007 122.617H149.546V116.099H149.007V122.617Z" fill="#FFA412"/>
<path d="M143.903 122.617H144.443V116.099H143.903V122.617Z" fill="#FFA412"/>
<path d="M139.35 122.617H139.889V116.099H139.35V122.617Z" fill="#FFA412"/>
<path d="M167.138 122.617H167.688V116.099H167.138V122.617Z" fill="#FFA412"/>
<path d="M168.829 116.099V121.186C168.653 121.454 168.476 121.722 168.289 121.991V116.099H168.829Z" fill="#FFA412"/>
<path d="M169.949 116.099V119.473C169.773 119.754 169.596 120.036 169.41 120.329V116.112H169.949V116.099Z" fill="#FFA412"/>
<path d="M170.779 116.125V118.119C170.602 118.412 170.416 118.719 170.239 119V116.099H170.582C170.613 116.099 170.644 116.099 170.665 116.099H170.685H170.696H170.716H170.737H170.748H170.768L170.779 116.125Z" fill="#FFA412"/>
<path d="M174.181 111.166V111.856C174.119 111.984 174.057 112.125 173.984 112.253C173.808 112.61 173.631 112.968 173.445 113.313C173.372 113.454 173.31 113.582 173.237 113.722C173.061 114.067 172.885 114.4 172.698 114.745C172.605 114.924 172.501 115.102 172.407 115.294C172.231 115.626 172.055 115.946 171.868 116.265H125.492C125.305 116.265 125.119 116.201 124.963 116.099C124.725 115.946 124.538 115.69 124.434 115.384C124.393 115.256 124.362 115.115 124.351 114.975V114.911V111.09C124.362 110.923 124.393 110.77 124.434 110.617C124.611 110.105 125.015 109.735 125.492 109.735H173.04C173.113 109.735 173.175 109.748 173.248 109.76C173.32 109.773 173.393 109.799 173.455 109.837C173.673 109.939 173.86 110.131 173.994 110.374C174.119 110.604 174.192 110.872 174.192 111.166H174.181Z" fill="#FFB93E"/>
<path d="M150.832 116.265H125.357C125.191 116.265 125.025 116.201 124.88 116.099C124.579 115.882 124.361 115.46 124.33 114.975C124.33 114.949 124.33 114.936 124.33 114.911C124.33 114.885 124.33 114.86 124.33 114.834V111.153C124.33 111.128 124.33 111.102 124.33 111.077C124.361 110.336 124.807 109.735 125.357 109.735H147.71C148.052 111.601 148.851 114.157 150.687 116.086C150.739 116.138 150.791 116.189 150.843 116.253L150.832 116.265Z" fill="#FFA412"/>
<path d="M167.854 116.265H168.404V109.748H167.854V116.265Z" fill="#FFA412"/>
<path d="M166.028 116.265H166.568V109.748H166.028V116.265Z" fill="#FFA412"/>
<path d="M163.84 116.265H164.379V109.748H163.84V116.265Z" fill="#FFA412"/>
<path d="M160.468 116.265H161.008V109.748H160.468V116.265Z" fill="#FFA412"/>
<path d="M156.911 116.265H157.46V109.748H156.911V116.265Z" fill="#FFA412"/>
<path d="M151.465 116.265H152.005V109.748H151.465V116.265Z" fill="#FFA412"/>
<path d="M146.362 116.265H146.901V109.748H146.362V116.265Z" fill="#FFA412"/>
<path d="M141.798 116.265H142.337V109.748H141.798V116.265Z" fill="#FFA412"/>
<path d="M169.596 116.265H170.136V109.748H169.596V116.265Z" fill="#FFA412"/>
<path d="M170.748 116.265H171.287V109.748H170.748V116.265Z" fill="#FFA412"/>
<path d="M172.397 109.748V115.281C172.221 115.614 172.044 115.933 171.858 116.253V109.748H172.397Z" fill="#FFA412"/>
<path d="M173.237 109.773V113.722C173.061 114.067 172.884 114.4 172.698 114.745V109.748H173.03C173.102 109.748 173.164 109.76 173.237 109.773Z" fill="#FFA412"/>
<path d="M173.984 110.374V112.252C173.808 112.61 173.631 112.968 173.445 113.313V109.837C173.663 109.939 173.849 110.131 173.984 110.374Z" fill="#FFA412"/>
<path d="M177.749 103.664C177.614 104.022 177.48 104.367 177.334 104.712C177.262 104.891 177.2 105.07 177.127 105.236C176.951 105.684 176.774 106.118 176.588 106.553C176.494 106.783 176.39 107.026 176.297 107.256C176.121 107.677 175.934 108.086 175.758 108.495C175.571 108.917 175.384 109.326 175.198 109.735H129.382C128.77 109.735 128.262 109.134 128.23 108.393C128.23 108.367 128.23 108.342 128.23 108.316V104.636C128.23 104.61 128.23 104.585 128.23 104.559C128.262 103.869 128.697 103.307 129.247 103.23C129.289 103.217 129.34 103.217 129.382 103.217H176.93C177.002 103.217 177.065 103.23 177.137 103.243C177.21 103.255 177.283 103.281 177.345 103.319C177.366 103.332 177.386 103.345 177.407 103.358C177.417 103.37 177.438 103.37 177.449 103.383C177.49 103.409 177.531 103.434 177.563 103.473C177.583 103.485 177.594 103.498 177.614 103.511L177.635 103.524L177.666 103.562C177.697 103.588 177.729 103.626 177.76 103.664H177.749Z" fill="#FFB93E"/>
<path d="M154.722 109.748H129.247C128.697 109.748 128.251 109.147 128.22 108.406C128.22 108.38 128.22 108.355 128.22 108.329V104.649C128.22 104.623 128.22 104.597 128.22 104.572C128.241 103.882 128.635 103.319 129.122 103.243C129.164 103.23 129.205 103.23 129.247 103.23H151.59V103.243C151.953 105.16 152.782 107.805 154.722 109.748Z" fill="#FFA412"/>
<path d="M171.744 109.748H172.283V103.23H171.744V109.748Z" fill="#FFA412"/>
<path d="M169.918 109.748H170.457V103.23H169.918V109.748Z" fill="#FFA412"/>
<path d="M167.719 109.748H168.258V103.23H167.719V109.748Z" fill="#FFA412"/>
<path d="M164.358 109.748H164.898V103.23H164.358V109.748Z" fill="#FFA412"/>
<path d="M160.801 109.748H161.34V103.23H160.801V109.748Z" fill="#FFA412"/>
<path d="M155.355 109.748H155.894V103.23H155.355V109.748Z" fill="#FFA412"/>
<path d="M150.252 109.748H150.791V103.23H150.252V109.748Z" fill="#FFA412"/>
<path d="M145.688 109.748H146.227V103.23H145.688V109.748Z" fill="#FFA412"/>
<path d="M173.486 109.748H174.026V103.23H173.486V109.748Z" fill="#FFA412"/>
<path d="M174.638 109.748H175.177V103.23H174.638V109.748Z" fill="#FFA412"/>
<path d="M176.287 103.23V107.256C176.11 107.677 175.924 108.086 175.747 108.495V103.217H176.287V103.23Z" fill="#FFA412"/>
<path d="M177.127 103.255V105.249C176.951 105.696 176.774 106.131 176.587 106.565V103.243H176.919C176.992 103.243 177.054 103.255 177.127 103.268V103.255Z" fill="#FFA412"/>
<path d="M177.75 103.664C177.615 104.022 177.48 104.367 177.334 104.712V103.319C177.355 103.332 177.376 103.345 177.397 103.358C177.407 103.37 177.428 103.37 177.438 103.383C177.48 103.409 177.522 103.434 177.553 103.473C177.574 103.485 177.584 103.498 177.605 103.511L177.626 103.524L177.657 103.562C177.688 103.588 177.719 103.626 177.75 103.664Z" fill="#FFA412"/>
<path d="M171.827 98.1435V101.824C171.827 102.118 171.754 102.386 171.63 102.616C171.495 102.859 171.308 103.038 171.09 103.153C171.018 103.192 170.955 103.204 170.883 103.23C170.862 103.23 170.841 103.243 170.82 103.243C170.8 103.243 170.789 103.243 170.769 103.243H170.737C170.717 103.243 170.696 103.243 170.686 103.243H123.138C122.526 103.243 122.017 102.642 121.986 101.901C121.986 101.875 121.986 101.85 121.986 101.824V98.1435C121.986 98.1179 121.986 98.0924 121.986 98.0668C122.017 97.3256 122.526 96.7249 123.138 96.7249H170.686C170.706 96.7249 170.727 96.7249 170.748 96.7249C170.8 96.7249 170.841 96.7377 170.893 96.7505C170.966 96.7633 171.038 96.7888 171.101 96.8272C171.132 96.8399 171.173 96.8655 171.204 96.8783C171.225 96.8911 171.246 96.9038 171.266 96.9166H171.277C171.298 96.9294 171.318 96.9422 171.339 96.9677L171.349 96.9805C171.37 96.9933 171.381 97.0061 171.401 97.0316C171.443 97.07 171.484 97.1083 171.515 97.1594L171.547 97.1978L171.557 97.2106L171.578 97.2361C171.588 97.2489 171.598 97.2745 171.609 97.2872C171.63 97.3128 171.64 97.3383 171.65 97.3639C171.775 97.5939 171.847 97.8623 171.847 98.1563L171.827 98.1435Z" fill="#FFB93E"/>
<path d="M148.478 103.243H123.003C122.453 103.243 122.007 102.642 121.976 101.901C121.976 101.875 121.976 101.85 121.976 101.824V98.1435C121.976 98.1179 121.976 98.0924 121.976 98.0668C122.007 97.3256 122.453 96.7249 123.003 96.7249H145.356C145.366 96.776 145.376 96.8272 145.387 96.8783C145.76 98.7825 146.59 101.338 148.478 103.23L148.488 103.243H148.478Z" fill="#FFA412"/>
<path d="M165.499 103.243H166.039V96.7249H165.499V103.243Z" fill="#FFA412"/>
<path d="M163.674 103.243H164.213V96.7249H163.674V103.243Z" fill="#FFA412"/>
<path d="M161.475 103.243H162.014V96.7249H161.475V103.243Z" fill="#FFA412"/>
<path d="M158.114 103.243H158.653V96.7249H158.114V103.243Z" fill="#FFA412"/>
<path d="M154.556 103.243H155.096V96.7249H154.556V103.243Z" fill="#FFA412"/>
<path d="M149.111 103.243H149.65V96.7249H149.111V103.243Z" fill="#FFA412"/>
<path d="M144.007 103.243H144.547V96.7249H144.007V103.243Z" fill="#FFA412"/>
<path d="M139.443 103.243H139.983V96.7249H139.443V103.243Z" fill="#FFA412"/>
<path d="M167.242 103.243H167.781V96.7249H167.242V103.243Z" fill="#FFA412"/>
<path d="M168.393 103.243H168.933V96.7249H168.393V103.243Z" fill="#FFA412"/>
<path d="M169.503 103.243H170.042V96.7249H169.503V103.243Z" fill="#FFA412"/>
<path d="M170.883 96.7505V103.217C170.82 103.23 170.748 103.243 170.675 103.243H170.343V96.7249H170.675C170.748 96.7249 170.81 96.7377 170.883 96.7505Z" fill="#FFA412"/>
<path d="M171.629 97.3511V102.616C171.495 102.859 171.308 103.038 171.09 103.153V96.8271C171.308 96.9294 171.495 97.1211 171.629 97.3639V97.3511Z" fill="#FFA412"/>
<path d="M175.322 91.779V95.4596C175.322 95.7536 175.25 96.0219 175.125 96.252C174.99 96.4948 174.804 96.6737 174.586 96.7887C174.513 96.8271 174.451 96.8399 174.378 96.8654C174.316 96.8782 174.243 96.891 174.171 96.891H126.623C126.436 96.891 126.26 96.8399 126.104 96.7376C125.762 96.5204 125.513 96.0986 125.471 95.6002C125.471 95.5874 125.471 95.5619 125.471 95.5363C125.471 95.5107 125.471 95.4852 125.471 95.4596V91.779C125.471 91.7535 125.471 91.7279 125.471 91.7023C125.503 91.0122 125.938 90.4499 126.488 90.3732C126.53 90.3604 126.581 90.3604 126.623 90.3604H174.171C174.243 90.3604 174.306 90.3732 174.378 90.386C174.451 90.3988 174.524 90.4243 174.586 90.4627C174.804 90.5649 174.99 90.7566 175.125 90.9994C175.25 91.2295 175.322 91.4979 175.322 91.7918V91.779Z" fill="#FFB93E"/>
<path d="M151.973 96.8783H126.498C126.332 96.8783 126.177 96.8272 126.042 96.725C125.731 96.5077 125.513 96.086 125.482 95.5876C125.482 95.5748 125.482 95.5492 125.482 95.5237C125.482 95.4981 125.482 95.4725 125.482 95.447V91.7664C125.482 91.7408 125.482 91.7153 125.482 91.6897C125.513 90.9996 125.897 90.4373 126.384 90.3606C126.426 90.3478 126.467 90.3478 126.509 90.3478H148.851V90.3606C149.204 92.2265 150.003 94.7824 151.828 96.7122C151.88 96.7633 151.922 96.8144 151.973 96.8656V96.8783Z" fill="#FFA412"/>
<path d="M168.995 96.8784H169.534V90.3734H168.995V96.8784Z" fill="#FFA412"/>
<path d="M167.169 96.8784H167.709V90.3734H167.169V96.8784Z" fill="#FFA412"/>
<path d="M164.97 96.8784H165.509V90.3734H164.97V96.8784Z" fill="#FFA412"/>
<path d="M161.61 96.8784H162.149V90.3734H161.61V96.8784Z" fill="#FFA412"/>
<path d="M158.052 96.8784H158.591V90.3734H158.052V96.8784Z" fill="#FFA412"/>
<path d="M152.606 96.8784H153.145V90.3734H152.606V96.8784Z" fill="#FFA412"/>
<path d="M147.503 96.8784H148.042V90.3734H147.503V96.8784Z" fill="#FFA412"/>
<path d="M142.939 96.8784H143.478V90.3734H142.939V96.8784Z" fill="#FFA412"/>
<path d="M170.737 96.8784H171.277V90.3734H170.737V96.8784Z" fill="#FFA412"/>
<path d="M171.889 96.8784H172.428V90.3734H171.889V96.8784Z" fill="#FFA412"/>
<path d="M172.999 96.8784H173.538V90.3734H172.999V96.8784Z" fill="#FFA412"/>
<path d="M174.378 90.386V96.8526C174.316 96.8654 174.243 96.8782 174.171 96.8782H173.828V90.3604H174.171C174.243 90.3604 174.306 90.3732 174.378 90.386Z" fill="#FFA412"/>
<path d="M175.125 90.9995V96.2648C174.99 96.5076 174.803 96.6865 174.586 96.8015V90.4755C174.803 90.5777 174.99 90.7694 175.125 91.0123V90.9995Z" fill="#FFA412"/>
<path d="M171.827 85.2869V88.9675C171.827 89.2614 171.754 89.5298 171.629 89.7598C171.495 90.0027 171.308 90.1816 171.09 90.2966C171.017 90.3349 170.955 90.3477 170.883 90.3733C170.862 90.3733 170.841 90.3861 170.82 90.3861H170.779H170.737C170.717 90.3861 170.696 90.3861 170.675 90.3861H123.127C122.515 90.3861 122.007 89.7854 121.976 89.0442C121.976 89.0186 121.976 88.9931 121.976 88.9675V85.2869C121.976 85.2613 121.976 85.2358 121.976 85.2102C122.007 84.469 122.515 83.8683 123.127 83.8683H170.675C170.748 83.8683 170.81 83.8811 170.883 83.8939C170.955 83.9067 171.028 83.9322 171.09 83.9706C171.308 84.0728 171.495 84.2645 171.629 84.5073C171.754 84.7373 171.827 85.0057 171.827 85.2997V85.2869Z" fill="#FFB93E"/>
<path d="M148.478 90.3734H123.003C122.453 90.3734 122.007 89.7727 121.976 89.0315C121.976 89.0059 121.976 88.9804 121.976 88.9548V85.2742C121.976 85.2486 121.976 85.2231 121.976 85.1975C122.007 84.4563 122.453 83.8556 123.003 83.8556H145.356C145.708 85.7726 146.538 88.418 148.478 90.3606L148.488 90.3734H148.478Z" fill="#FFA412"/>
<path d="M165.499 90.3733H166.039V83.8683H165.499V90.3733Z" fill="#FFA412"/>
<path d="M163.674 90.3733H164.213V83.8683H163.674V90.3733Z" fill="#FFA412"/>
<path d="M161.475 90.3733H162.014V83.8683H161.475V90.3733Z" fill="#FFA412"/>
<path d="M158.114 90.3733H158.653V83.8683H158.114V90.3733Z" fill="#FFA412"/>
<path d="M154.556 90.3733H155.096V83.8683H154.556V90.3733Z" fill="#FFA412"/>
<path d="M149.111 90.3733H149.65V83.8683H149.111V90.3733Z" fill="#FFA412"/>
<path d="M144.007 90.3733H144.547V83.8683H144.007V90.3733Z" fill="#FFA412"/>
<path d="M138.443 90.3733H138.983V83.8683H138.443V90.3733Z" fill="#FFA412"/>
<path d="M166.242 90.3733H166.781V83.8683H166.242V90.3733Z" fill="#FFA412"/>
<path d="M167.393 90.3733H167.933V83.8683H167.393V90.3733Z" fill="#FFA412"/>
<path d="M168.503 90.3733H169.042V83.8683H168.503V90.3733Z" fill="#FFA412"/>
<path d="M169.883 83.8812V90.3478C169.82 90.3606 169.748 90.3734 169.675 90.3734H169.343V83.8556H169.675C169.748 83.8556 169.81 83.8684 169.883 83.8812Z" fill="#FFA412"/>
<path d="M170.629 84.4946V89.7599C170.495 90.0027 170.308 90.1816 170.09 90.2839V83.9578C170.308 84.0601 170.495 84.2518 170.629 84.4946Z" fill="#FFA412"/>
<path d="M153.649 71.7403L130.518 39.9439C128.029 36.5189 123.413 38.6915 123.413 43.2922V123.422C123.413 123.422 153.639 128.585 153.639 123.422C153.639 118.259 153.639 71.7403 153.639 71.7403H153.649Z" fill="#ED7D2B"/>
<path d="M113.124 122.31L123.247 120.713C123.247 120.713 122.397 113.019 123.849 102.629C124.917 94.9613 127.23 85.8109 132.054 77.1972C140.279 62.5131 165.868 53.2349 165.868 53.2349L165.806 51.3946L164.873 51.3179C164.873 51.3179 165.267 50.9473 165.785 50.73L165.64 46.3721C164.873 46.3977 163.784 46.5127 162.715 46.8705C163.317 46.6532 164.593 46.2187 165.63 46.0654L165.557 43.7778C128.143 46.9216 116.858 75.4208 113.756 97.185C111.765 111.115 113.134 122.297 113.134 122.297L113.124 122.31Z" fill="#82B378"/>
<path d="M68.5007 120.521L113.124 122.31C113.072 113.85 114.565 105.032 116.069 98.3225C117.574 91.613 119.098 87.0251 119.098 87.0251C131.203 50.4234 165.547 43.7907 165.547 43.7907L126.598 26.41C108.155 29.0682 95.5421 40.6724 86.9225 54.8836C70.0463 82.7182 68.5007 120.508 68.5007 120.508V120.521Z" fill="#A8D29F"/>
<path d="M113.124 122.31C113.072 113.85 114.566 105.032 116.07 98.3224C119.098 99.7282 121.671 101.16 123.849 102.629C123.673 103.869 123.538 105.07 123.424 106.233C123.102 109.53 123.009 112.431 123.009 114.77C123.009 118.476 123.258 120.713 123.258 120.713L120.883 121.083L113.134 122.31H113.124Z" fill="#82B378"/>
<path d="M113.124 122.31L68.5007 120.521C68.5007 120.521 70.0463 82.7181 86.9225 54.8962C86.6839 57.3116 84.8791 82.5392 113.746 97.1977C114.503 97.5811 115.271 97.9517 116.069 98.3223C114.565 105.032 113.072 113.85 113.124 122.31Z" fill="#95C28B"/>
<path d="M150.226 44.1995C145.984 46.1165 142.053 48.3274 138.443 50.8195C133.288 54.3723 128.776 58.4874 124.948 63.1521C124.43 63.7911 123.911 64.4428 123.413 65.0946C122.324 66.526 121.297 68.0212 120.333 69.5548C116.785 75.1907 114.078 81.4657 112.242 88.2773C112.169 88.5202 112.107 88.763 112.045 89.0058C112.014 89.1208 111.983 89.2358 111.951 89.3508C111.557 90.91 111.215 92.4436 110.935 93.9516C110.831 94.4756 110.738 94.9996 110.655 95.5235C110.551 96.1242 110.458 96.7121 110.375 97.3127C109.545 102.974 109.41 107.958 109.483 111.588C109.566 115.665 109.929 118.655 110.126 120.086L104.328 120.521L102.803 120.636L102.481 120.662L100.199 120.828L91.8701 121.454H91.8598L73.3032 122.847L73.1268 120.713L72.6808 115.268C72.6289 114.502 72.6082 113.684 72.6186 112.802C72.6497 109.786 73.0438 106.118 73.7803 101.926C74.2263 99.3958 74.7864 96.6737 75.4814 93.7855C77.1203 86.8971 78.8836 81.4657 78.894 81.4145C79.4749 79.587 80.0765 77.785 80.7196 76.047C80.7818 75.8808 80.8337 75.7275 80.8959 75.5613C81.6531 73.5038 82.4518 71.5101 83.292 69.5803C84.4641 66.871 85.7192 64.2895 87.0572 61.8357C88.8724 58.4746 90.8329 55.3691 92.9281 52.5064C97.5024 46.257 102.741 41.209 108.477 37.4772C114.7 33.4388 120.198 31.8669 123.392 31.2534C125.073 30.9339 126.784 31.1256 128.382 31.8158L150.185 41.2345C151.326 41.7202 151.326 43.7011 150.195 44.2123L150.226 44.1995ZM126.442 29.2214H126.328C125.996 29.2342 118.019 29.4898 107.968 35.982C102.077 39.7904 96.7141 44.9535 92.0257 51.3562C90.2105 53.8355 88.4887 56.4937 86.8809 59.3309C85.0657 62.5258 83.3853 65.9381 81.8398 69.5676C81.0204 71.4846 80.2424 73.4527 79.506 75.4847C79.4437 75.6636 79.3711 75.8425 79.3089 76.0214C78.7488 77.5806 78.2094 79.178 77.7011 80.8011C77.5041 81.4145 74.2367 91.5618 72.4526 101.913C72.2659 103.013 72.0896 104.112 71.9443 105.198C71.8406 105.939 71.7473 106.668 71.6747 107.396C71.4672 109.262 71.3427 111.077 71.3324 112.789C71.322 113.684 71.3427 114.553 71.3946 115.383V115.396L71.7473 119.716L71.8199 120.636L71.934 122.016L72.0481 123.409L72.0896 123.908L72.1414 124.547L100.407 122.425L102.741 122.246L103.01 122.221L104.535 122.106L106.06 121.991H106.07L111.754 121.569L111.578 120.636C111.557 120.508 109.659 109.811 111.9 96.2009C111.951 95.8686 112.014 95.5491 112.066 95.2168C112.242 94.2072 112.439 93.1976 112.667 92.1624C112.844 91.3701 113.03 90.5649 113.238 89.7598C113.456 88.8908 113.694 88.0345 113.943 87.191C113.974 87.0888 114.005 86.9866 114.036 86.8843C115.177 83.0759 116.598 79.4464 118.31 76.0214C118.403 75.8425 118.497 75.6636 118.59 75.4719C119.638 73.4271 120.779 71.4462 122.023 69.5548C122.469 68.8647 122.936 68.1873 123.413 67.5228C124.202 66.4109 125.031 65.3246 125.903 64.2767C126.981 62.9604 128.112 61.6952 129.305 60.4683L129.326 60.4555C132.323 57.3755 135.663 54.5767 139.346 52.0719C139.657 51.8546 139.968 51.6502 140.289 51.4457H140.3H140.31C145.009 48.3529 150.237 45.7203 155.973 43.5605L157.902 42.832L126.452 29.2342L126.442 29.2214Z" fill="#82B378"/>
<path d="M91.5901 67.3439C91.8598 75.3952 95.8532 80.0599 102.378 79.7276C108.912 79.3953 115.509 74.1939 115.24 66.1426C114.97 58.0912 111.194 53.4649 104.66 53.7972C98.1248 54.1295 91.3204 59.2925 91.5901 67.3439Z" fill="#82B378"/>
<path d="M153.65 71.7403V136.471C152.809 137.097 151.959 137.71 151.098 138.285C150.434 138.733 149.76 139.154 149.075 139.576C148.038 140.202 146.98 140.79 145.901 141.352C145.725 141.442 145.538 141.544 145.362 141.634C145.051 141.787 144.729 141.94 144.418 142.094C143.961 142.311 143.495 142.528 143.028 142.733C141.991 143.193 140.943 143.614 139.875 144.011C139.491 144.151 139.117 144.292 138.734 144.42C137.261 144.931 135.746 145.378 134.211 145.774C133.029 146.158 131.826 146.413 130.612 146.567C127.811 147.103 124.897 147.448 121.889 147.589C121.401 147.615 120.903 147.64 120.405 147.653C119.679 147.678 118.953 147.691 118.206 147.691C117.325 147.691 116.433 147.678 115.53 147.653C108.01 147.448 100.231 146.362 92.7105 144.394C92.14 144.241 91.5798 144.087 91.0093 143.934C84.3398 142.055 77.9087 139.461 72.0897 136.125C71.9445 136.036 71.7993 135.959 71.6437 135.87C70.1812 135.014 68.7601 134.119 67.3806 133.173V71.7275C67.3806 70.5262 68.1792 69.555 69.1439 69.555H151.886C151.948 69.555 152.021 69.555 152.083 69.5677C152.965 69.6828 153.66 70.6157 153.66 71.7275L153.65 71.7403Z" fill="#F99746"/>
<path d="M139.678 143.883H138.205C138.091 143.883 137.997 143.998 137.987 144.138V144.164C137.987 144.317 138.08 144.432 138.205 144.432H138.723C139.107 144.304 139.491 144.164 139.864 144.023C139.823 143.947 139.761 143.883 139.678 143.883ZM136.732 143.883H135.259C135.134 143.883 135.041 143.998 135.041 144.151C135.041 144.304 135.134 144.419 135.259 144.419H136.732C136.856 144.419 136.95 144.304 136.95 144.151C136.95 143.998 136.846 143.883 136.732 143.883ZM133.786 143.883H132.313C132.189 143.883 132.095 143.998 132.095 144.151C132.095 144.304 132.199 144.419 132.313 144.419H133.786C133.91 144.419 134.004 144.304 134.004 144.151C134.004 143.998 133.9 143.883 133.786 143.883ZM130.84 143.883H129.367C129.243 143.883 129.149 143.998 129.149 144.151C129.149 144.304 129.253 144.419 129.367 144.419H130.84C130.965 144.419 131.058 144.304 131.058 144.151C131.058 143.998 130.954 143.883 130.84 143.883ZM127.894 143.883H126.421C126.297 143.883 126.204 143.998 126.204 144.151C126.204 144.304 126.307 144.419 126.421 144.419H127.894C128.019 144.419 128.112 144.304 128.112 144.151C128.112 143.998 128.019 143.883 127.894 143.883ZM124.948 143.883H123.476C123.351 143.883 123.258 143.998 123.258 144.151C123.258 144.304 123.351 144.419 123.476 144.419H124.948C125.073 144.419 125.166 144.304 125.166 144.151C125.166 143.998 125.073 143.883 124.948 143.883ZM122.003 143.883H120.53C120.405 143.883 120.312 143.998 120.312 144.151C120.312 144.304 120.405 144.419 120.53 144.419H122.003C122.127 144.419 122.22 144.304 122.22 144.151C122.22 143.998 122.117 143.883 122.003 143.883ZM119.057 143.883H117.584C117.459 143.883 117.366 143.998 117.366 144.151C117.366 144.304 117.47 144.419 117.584 144.419H119.057C119.181 144.419 119.275 144.304 119.275 144.151C119.275 143.998 119.171 143.883 119.057 143.883ZM116.111 143.883H114.638C114.586 143.883 114.534 143.908 114.493 143.947C114.451 143.998 114.42 144.062 114.42 144.151C114.42 144.304 114.524 144.419 114.638 144.419H116.111C116.235 144.419 116.329 144.304 116.329 144.151C116.329 143.998 116.225 143.883 116.111 143.883ZM113.165 143.883H111.692C111.568 143.883 111.474 143.998 111.474 144.151C111.474 144.304 111.578 144.419 111.692 144.419H113.165C113.29 144.419 113.383 144.304 113.383 144.151C113.383 143.998 113.29 143.883 113.165 143.883ZM110.219 143.883H108.746C108.622 143.883 108.529 143.998 108.529 144.151C108.529 144.304 108.622 144.419 108.746 144.419H110.219C110.344 144.419 110.437 144.304 110.437 144.151C110.437 143.998 110.344 143.883 110.219 143.883ZM107.274 143.883H105.801C105.676 143.883 105.583 143.998 105.583 144.151C105.583 144.304 105.676 144.419 105.801 144.419H107.274C107.398 144.419 107.491 144.304 107.491 144.151C107.491 143.998 107.398 143.883 107.274 143.883ZM104.328 143.883H102.855C102.73 143.883 102.637 143.998 102.637 144.151C102.637 144.304 102.741 144.419 102.855 144.419H104.328C104.452 144.419 104.546 144.304 104.546 144.151C104.546 143.998 104.442 143.883 104.328 143.883ZM101.382 143.883H99.909C99.7845 143.883 99.6912 143.998 99.6912 144.151C99.6912 144.304 99.7949 144.419 99.909 144.419H101.382C101.506 144.419 101.6 144.304 101.6 144.151C101.6 143.998 101.496 143.883 101.382 143.883ZM98.4361 143.883H96.9632C96.8387 143.883 96.7454 143.998 96.7454 144.151C96.7454 144.304 96.8491 144.419 96.9632 144.419H98.4361C98.5606 144.419 98.6539 144.304 98.6539 144.151C98.6539 143.998 98.5502 143.883 98.4361 143.883ZM95.4903 143.883H94.0174C93.8929 143.883 93.7995 143.998 93.7995 144.151C93.7995 144.304 93.9033 144.419 94.0174 144.419H95.4903C95.6147 144.419 95.7081 144.304 95.7081 144.151C95.7081 143.998 95.6147 143.883 95.4903 143.883ZM92.5445 143.883H91.0715C91.0197 143.883 90.9782 143.908 90.9367 143.934C91.4968 144.087 92.0673 144.241 92.6378 144.394C92.7104 144.356 92.7623 144.253 92.7623 144.151C92.7623 143.998 92.6689 143.883 92.5445 143.883ZM147.26 137.991C147.239 137.863 147.146 137.774 147.042 137.774C146.918 137.774 146.824 137.902 146.824 138.042V139.857C146.824 140.01 146.918 140.125 147.042 140.125C147.167 140.125 147.26 139.998 147.26 139.857V138.042C147.26 138.017 147.26 138.004 147.25 137.978L147.26 137.991ZM71.8096 134.183C71.6851 134.183 71.5918 134.311 71.5918 134.451V135.87C71.737 135.959 71.8822 136.036 72.0378 136.125V134.451C72.0378 134.298 71.9341 134.183 71.82 134.183H71.8096ZM147.042 134.157C147.021 134.157 147.001 134.157 146.98 134.17C146.887 134.208 146.824 134.311 146.824 134.426V136.24C146.824 136.394 146.918 136.509 147.042 136.509C147.167 136.509 147.26 136.381 147.26 136.24V134.426C147.26 134.272 147.167 134.157 147.042 134.157ZM71.8096 130.566C71.6851 130.566 71.5918 130.694 71.5918 130.834V132.649C71.5918 132.803 71.6851 132.918 71.8096 132.918C71.9341 132.918 72.0274 132.803 72.0274 132.649V130.834C72.0274 130.681 71.9237 130.566 71.8096 130.566ZM147.042 130.528C147.021 130.528 147.001 130.528 146.98 130.541C146.887 130.566 146.824 130.681 146.824 130.796V132.611C146.824 132.739 146.897 132.841 146.98 132.866C147.001 132.879 147.021 132.879 147.042 132.879C147.167 132.879 147.26 132.764 147.26 132.611V130.796C147.26 130.643 147.167 130.528 147.042 130.528ZM71.8096 126.937C71.6851 126.937 71.5918 127.052 71.5918 127.205V129.02C71.5918 129.173 71.6851 129.288 71.8096 129.288C71.9341 129.288 72.0274 129.173 72.0274 129.02V127.205C72.0274 127.052 71.9237 126.937 71.8096 126.937ZM147.042 126.911C146.918 126.911 146.824 127.026 146.824 127.179V128.994C146.824 129.02 146.824 129.045 146.835 129.071V129.084C146.855 129.16 146.907 129.224 146.98 129.25C147.001 129.263 147.021 129.263 147.042 129.263C147.135 129.263 147.218 129.186 147.25 129.084V129.071C147.26 129.045 147.26 129.02 147.26 128.994V127.179C147.26 127.026 147.167 126.911 147.042 126.911ZM71.986 123.435C71.9445 123.371 71.8822 123.32 71.8096 123.32C71.6851 123.32 71.5918 123.435 71.5918 123.588V125.403C71.5918 125.556 71.6851 125.671 71.8096 125.671C71.9341 125.671 72.0274 125.544 72.0274 125.403V123.588C72.0274 123.524 72.0171 123.473 71.986 123.435ZM147.042 123.282C146.918 123.282 146.824 123.397 146.824 123.55V125.365C146.824 125.518 146.918 125.633 147.042 125.633C147.167 125.633 147.26 125.518 147.26 125.365V123.55C147.26 123.397 147.167 123.282 147.042 123.282ZM71.8096 119.69C71.7681 119.69 71.7266 119.703 71.6851 119.729C71.6229 119.78 71.5814 119.869 71.5814 119.959V121.774C71.5814 121.927 71.6748 122.042 71.7992 122.042C71.82 122.042 71.8407 122.042 71.8615 122.029C71.9548 121.991 72.0171 121.889 72.0171 121.774V119.959C72.0171 119.805 71.9133 119.69 71.7992 119.69H71.8096ZM147.042 119.665C146.918 119.665 146.824 119.793 146.824 119.933V121.748C146.824 121.901 146.918 122.016 147.042 122.016C147.167 122.016 147.26 121.889 147.26 121.748V119.933C147.26 119.78 147.167 119.665 147.042 119.665ZM71.8096 116.074C71.6851 116.074 71.5918 116.201 71.5918 116.342V118.157C71.5918 118.31 71.6851 118.425 71.8096 118.425C71.9341 118.425 72.0274 118.297 72.0274 118.157V116.342C72.0274 116.189 71.9237 116.074 71.8096 116.074ZM147.26 116.278C147.25 116.214 147.229 116.15 147.187 116.112C147.146 116.074 147.094 116.035 147.042 116.035C146.99 116.035 146.938 116.061 146.897 116.112C146.855 116.15 146.835 116.214 146.824 116.278V116.316V118.131C146.824 118.285 146.918 118.4 147.042 118.4C147.167 118.4 147.26 118.272 147.26 118.131V116.316V116.278ZM71.8096 112.457C71.6851 112.457 71.5918 112.585 71.5918 112.725V114.54C71.5918 114.693 71.6851 114.808 71.8096 114.808C71.9341 114.808 72.0274 114.681 72.0274 114.54V112.725C72.0274 112.572 71.9237 112.457 71.8096 112.457ZM147.042 112.419C146.918 112.419 146.824 112.546 146.824 112.687V114.502C146.824 114.655 146.918 114.77 147.042 114.77C147.167 114.77 147.26 114.642 147.26 114.502V112.687C147.26 112.534 147.167 112.419 147.042 112.419ZM71.8096 108.827C71.6851 108.827 71.5918 108.942 71.5918 109.096V110.911C71.5918 111.064 71.6851 111.179 71.8096 111.179C71.9341 111.179 72.0274 111.064 72.0274 110.911V109.096C72.0274 108.942 71.9237 108.827 71.8096 108.827ZM147.042 108.802C146.918 108.802 146.824 108.917 146.824 109.07V110.885C146.824 111 146.887 111.102 146.959 111.141C146.98 111.153 147.011 111.166 147.042 111.166C147.167 111.166 147.26 111.051 147.26 110.898V109.083C147.26 108.93 147.167 108.815 147.042 108.815V108.802ZM71.8822 105.224C71.8615 105.211 71.8304 105.198 71.7992 105.198C71.6748 105.198 71.5814 105.313 71.5814 105.466V107.281C71.5814 107.332 71.5918 107.383 71.6125 107.422C71.654 107.498 71.7266 107.562 71.7992 107.562C71.9237 107.562 72.0171 107.447 72.0171 107.294V105.479C72.0171 105.364 71.9548 105.262 71.8822 105.224ZM147.042 105.172C146.918 105.172 146.824 105.287 146.824 105.441V107.256C146.824 107.409 146.918 107.524 147.042 107.524C147.167 107.524 147.26 107.409 147.26 107.256V105.441C147.26 105.287 147.167 105.172 147.042 105.172ZM71.8096 101.581C71.6851 101.581 71.5918 101.709 71.5918 101.85V103.664C71.5918 103.818 71.6851 103.933 71.8096 103.933C71.9341 103.933 72.0274 103.805 72.0274 103.664V101.85C72.0274 101.696 71.9237 101.581 71.8096 101.581ZM147.042 101.556C146.918 101.556 146.824 101.671 146.824 101.824V103.639C146.824 103.792 146.918 103.907 147.042 103.907C147.167 103.907 147.26 103.779 147.26 103.639V101.824C147.26 101.671 147.167 101.556 147.042 101.556ZM71.8096 97.9646C71.6851 97.9646 71.5918 98.0924 71.5918 98.2329V100.048C71.5918 100.201 71.6851 100.316 71.8096 100.316C71.9341 100.316 72.0274 100.188 72.0274 100.048V98.2329C72.0274 98.0796 71.9237 97.9646 71.8096 97.9646ZM147.042 97.9262C146.918 97.9262 146.824 98.054 146.824 98.1946V100.009C146.824 100.163 146.918 100.278 147.042 100.278C147.167 100.278 147.26 100.15 147.26 100.009V98.1946C147.26 98.0412 147.167 97.9262 147.042 97.9262ZM71.8096 94.3351C71.6851 94.3351 71.5918 94.4629 71.5918 94.6035V96.4182C71.5918 96.4821 71.6125 96.5332 71.6437 96.5843C71.6851 96.6482 71.7474 96.6866 71.82 96.6866C71.9445 96.6866 72.0378 96.5588 72.0378 96.4182V94.6035C72.0378 94.4501 71.9341 94.3351 71.82 94.3351H71.8096ZM147.042 94.2967C147.021 94.2967 147.001 94.2967 146.98 94.3095C146.887 94.3351 146.824 94.4501 146.824 94.5651V96.3799C146.824 96.5077 146.897 96.6099 146.98 96.6482C147.001 96.661 147.021 96.661 147.042 96.661C147.167 96.661 147.26 96.5332 147.26 96.3926V94.5779C147.26 94.4245 147.167 94.3095 147.042 94.3095V94.2967ZM71.8096 90.7056C71.6851 90.7056 71.5918 90.8206 71.5918 90.974V92.7887C71.5918 92.9421 71.6851 93.0571 71.8096 93.0571C71.9341 93.0571 72.0274 92.9421 72.0274 92.7887V90.974C72.0274 90.8206 71.9237 90.7056 71.8096 90.7056ZM147.042 90.68C147.021 90.68 147.001 90.68 146.98 90.6928C146.887 90.7311 146.824 90.8334 146.824 90.9484V92.7631C146.824 92.8909 146.897 92.9932 146.98 93.0187C147.001 93.0315 147.021 93.0315 147.042 93.0315C147.167 93.0315 147.26 92.9165 147.26 92.7631V90.9484C147.26 90.795 147.167 90.68 147.042 90.68ZM71.8096 87.0889C71.6851 87.0889 71.5918 87.2039 71.5918 87.3572V89.172C71.5918 89.3254 71.6851 89.4404 71.8096 89.4404C71.9341 89.4404 72.0274 89.3254 72.0274 89.172V87.3572C72.0274 87.2039 71.9237 87.0889 71.8096 87.0889ZM147.042 87.0633C146.918 87.0633 146.824 87.1783 146.824 87.3317V89.1464C146.824 89.2998 146.918 89.4148 147.042 89.4148C147.167 89.4148 147.26 89.2998 147.26 89.1464V87.3317C147.26 87.1783 147.167 87.0633 147.042 87.0633ZM71.8096 83.4722C71.6851 83.4722 71.5918 83.5872 71.5918 83.7405V85.5553C71.5918 85.7086 71.6851 85.8237 71.8096 85.8237C71.9341 85.8237 72.0274 85.6959 72.0274 85.5553V83.7405C72.0274 83.5872 71.9237 83.4722 71.8096 83.4722ZM147.042 83.4338C146.918 83.4338 146.824 83.5488 146.824 83.7022V85.5169C146.824 85.6703 146.918 85.7853 147.042 85.7853C147.167 85.7853 147.26 85.6575 147.26 85.5169V83.7022C147.26 83.5488 147.167 83.4338 147.042 83.4338ZM71.8096 79.8427C71.6851 79.8427 71.5918 79.9705 71.5918 80.111V81.9258C71.5918 82.0792 71.6851 82.1942 71.8096 82.1942C71.9341 82.1942 72.0274 82.0664 72.0274 81.9258V80.111C72.0274 79.9577 71.9237 79.8427 71.8096 79.8427ZM147.042 79.8043C146.918 79.8043 146.824 79.9321 146.824 80.0727V81.8875C146.824 82.0408 146.918 82.1558 147.042 82.1558C147.167 82.1558 147.26 82.028 147.26 81.8875V80.0727C147.26 79.9193 147.167 79.8043 147.042 79.8043ZM72.2349 76.341C72.1312 76.2515 71.9963 76.2771 71.9237 76.4049C71.7059 76.7755 71.5814 77.2228 71.5814 77.6829V78.2963C71.5814 78.4497 71.6748 78.5647 71.7992 78.5647C71.9237 78.5647 72.0171 78.4369 72.0171 78.2963V77.6829C72.0171 77.3378 72.1001 77.0055 72.2764 76.7244C72.349 76.5966 72.3282 76.4304 72.2349 76.341ZM146.907 76.3665C146.835 76.2515 146.7 76.226 146.596 76.3154C146.503 76.4049 146.482 76.571 146.555 76.6988C146.731 76.98 146.824 77.325 146.824 77.6829V78.2707C146.824 78.4241 146.918 78.5391 147.042 78.5391C147.167 78.5391 147.26 78.4113 147.26 78.2707V77.6829C147.26 77.21 147.135 76.7499 146.897 76.3793L146.907 76.3665ZM145.455 75.5103H143.982C143.858 75.5103 143.764 75.6381 143.764 75.7787C143.764 75.932 143.858 76.047 143.982 76.047H145.455C145.58 76.047 145.673 75.9192 145.673 75.7787C145.673 75.6253 145.569 75.5103 145.455 75.5103ZM142.509 75.5103H141.036C140.912 75.5103 140.819 75.6381 140.819 75.7787C140.819 75.932 140.922 76.047 141.036 76.047H142.509C142.634 76.047 142.727 75.9192 142.727 75.7787C142.727 75.6253 142.623 75.5103 142.509 75.5103ZM139.563 75.5103H138.091C137.966 75.5103 137.873 75.6381 137.873 75.7787C137.873 75.932 137.976 76.047 138.091 76.047H139.563C139.688 76.047 139.781 75.9192 139.781 75.7787C139.781 75.6253 139.678 75.5103 139.563 75.5103ZM136.618 75.5103H135.145C135.02 75.5103 134.927 75.6381 134.927 75.7787C134.927 75.932 135.031 76.047 135.145 76.047H136.618C136.742 76.047 136.835 75.9192 136.835 75.7787C136.835 75.6253 136.742 75.5103 136.618 75.5103ZM133.672 75.5103H132.199C132.074 75.5103 131.981 75.6381 131.981 75.7787C131.981 75.932 132.074 76.047 132.199 76.047H133.672C133.796 76.047 133.89 75.9192 133.89 75.7787C133.89 75.6253 133.796 75.5103 133.672 75.5103ZM130.726 75.5103H129.253C129.129 75.5103 129.035 75.6381 129.035 75.7787C129.035 75.932 129.129 76.047 129.253 76.047H130.726C130.85 76.047 130.944 75.9192 130.944 75.7787C130.944 75.6253 130.84 75.5103 130.726 75.5103ZM127.78 75.5103H126.307C126.183 75.5103 126.089 75.6381 126.089 75.7787C126.089 75.932 126.193 76.047 126.307 76.047H127.78C127.905 76.047 127.998 75.9192 127.998 75.7787C127.998 75.6253 127.894 75.5103 127.78 75.5103ZM124.834 75.5103H123.361H123.341C123.227 75.5231 123.144 75.6381 123.144 75.7787C123.144 75.9192 123.227 76.0343 123.341 76.047H123.361H124.834C124.959 76.047 125.052 75.9192 125.052 75.7787C125.052 75.6253 124.948 75.5103 124.834 75.5103ZM121.889 75.5103H120.416C120.291 75.5103 120.198 75.6381 120.198 75.7787C120.198 75.932 120.302 76.047 120.416 76.047H121.889C122.013 76.047 122.106 75.9192 122.106 75.7787C122.106 75.6253 122.013 75.5103 121.889 75.5103ZM118.943 75.5103H117.47C117.345 75.5103 117.252 75.6381 117.252 75.7787C117.252 75.932 117.345 76.047 117.47 76.047H118.943C119.067 76.047 119.161 75.9192 119.161 75.7787C119.161 75.6253 119.067 75.5103 118.943 75.5103ZM115.997 75.5103H114.524C114.4 75.5103 114.306 75.6381 114.306 75.7787C114.306 75.932 114.4 76.047 114.524 76.047H115.997C116.121 76.047 116.215 75.9192 116.215 75.7787C116.215 75.6253 116.111 75.5103 115.997 75.5103ZM113.051 75.5103H111.578C111.464 75.5103 111.371 75.6125 111.36 75.7531V75.7787C111.36 75.932 111.464 76.047 111.578 76.047H113.051C113.176 76.047 113.269 75.9192 113.269 75.7787C113.269 75.6253 113.165 75.5103 113.051 75.5103ZM110.105 75.5103H108.632C108.508 75.5103 108.415 75.6381 108.415 75.7787C108.415 75.932 108.518 76.047 108.632 76.047H110.105C110.23 76.047 110.323 75.9192 110.323 75.7787C110.323 75.6253 110.219 75.5103 110.105 75.5103ZM107.159 75.5103H105.687C105.562 75.5103 105.469 75.6381 105.469 75.7787C105.469 75.932 105.572 76.047 105.687 76.047H107.159C107.284 76.047 107.377 75.9192 107.377 75.7787C107.377 75.6253 107.274 75.5103 107.159 75.5103ZM104.214 75.5103H102.741C102.616 75.5103 102.523 75.6381 102.523 75.7787C102.523 75.932 102.627 76.047 102.741 76.047H104.214C104.338 76.047 104.431 75.9192 104.431 75.7787C104.431 75.6253 104.338 75.5103 104.214 75.5103ZM101.268 75.5103H99.7949C99.6704 75.5103 99.5771 75.6381 99.5771 75.7787C99.5771 75.932 99.6704 76.047 99.7949 76.047H101.268C101.392 76.047 101.486 75.9192 101.486 75.7787C101.486 75.6253 101.392 75.5103 101.268 75.5103ZM98.322 75.5103H96.8491C96.7246 75.5103 96.6313 75.6381 96.6313 75.7787C96.6313 75.932 96.7246 76.047 96.8491 76.047H98.322C98.4465 76.047 98.5398 75.9192 98.5398 75.7787C98.5398 75.6253 98.4361 75.5103 98.322 75.5103ZM95.3762 75.5103H93.9033C93.8203 75.5103 93.7477 75.5614 93.7166 75.6381C93.6958 75.6764 93.6854 75.7275 93.6854 75.7787C93.6854 75.932 93.7892 76.047 93.9033 76.047H95.3762C95.5006 76.047 95.594 75.9192 95.594 75.7787C95.594 75.6253 95.4903 75.5103 95.3762 75.5103ZM92.4304 75.5103H90.9574C90.833 75.5103 90.7396 75.6381 90.7396 75.7787C90.7396 75.932 90.8433 76.047 90.9574 76.047H92.4304C92.5548 76.047 92.6482 75.9192 92.6482 75.7787C92.6482 75.6253 92.5445 75.5103 92.4304 75.5103ZM89.4845 75.5103H88.0116C87.8872 75.5103 87.7938 75.6381 87.7938 75.7787C87.7938 75.932 87.8975 76.047 88.0116 76.047H89.4845C89.609 76.047 89.7024 75.9192 89.7024 75.7787C89.7024 75.6253 89.609 75.5103 89.4845 75.5103ZM86.5387 75.5103H85.0658C84.9413 75.5103 84.848 75.6381 84.848 75.7787C84.848 75.932 84.9413 76.047 85.0658 76.047H86.5387C86.6632 76.047 86.7565 75.9192 86.7565 75.7787C86.7565 75.6253 86.6632 75.5103 86.5387 75.5103ZM83.5929 75.5103H82.12C81.9955 75.5103 81.9022 75.6381 81.9022 75.7787C81.9022 75.932 81.9955 76.047 82.12 76.047H83.5929C83.7174 76.047 83.8107 75.9192 83.8107 75.7787C83.8107 75.6253 83.707 75.5103 83.5929 75.5103ZM80.7923 75.5742C80.7508 75.5358 80.7093 75.5103 80.6471 75.5103H79.1742C79.0497 75.5103 78.9563 75.6381 78.9563 75.7787C78.9563 75.932 79.0497 76.047 79.1742 76.047H79.1845H80.6574C80.7819 76.047 80.8753 75.9192 80.8753 75.7787C80.8753 75.6892 80.8442 75.6253 80.7923 75.5742ZM77.7116 75.5103H76.2387C76.1142 75.5103 76.0209 75.6381 76.0209 75.7787C76.0209 75.932 76.1246 76.047 76.2387 76.047H77.7116C77.8361 76.047 77.9295 75.9192 77.9295 75.7787C77.9295 75.6253 77.8257 75.5103 77.7116 75.5103ZM74.7658 75.5103H73.2929C73.1684 75.5103 73.0751 75.6381 73.0751 75.7787C73.0751 75.932 73.1788 76.047 73.2929 76.047H74.7658C74.8903 76.047 74.9836 75.9192 74.9836 75.7787C74.9836 75.6253 74.8903 75.5103 74.7658 75.5103Z" fill="#ED7D2B"/>
<path d="M74.8694 112.802H61.6443C59.7773 112.802 58.2525 110.923 58.2525 108.623V106.105C58.2525 103.805 59.7773 101.926 61.6443 101.926H74.8694C76.7365 101.926 78.2613 103.805 78.2613 106.105V108.623C78.2613 110.923 76.7365 112.802 74.8694 112.802Z" fill="#ED7D2B"/>
<path d="M158.182 116.099C158.182 116.15 158.182 116.201 158.182 116.265C158.13 118.387 157.923 120.508 157.57 122.566L157.56 122.604V122.617C157.435 123.345 157.29 124.061 157.124 124.777C156.782 126.246 156.367 127.678 155.88 129.071V129.084C155.257 130.847 154.521 132.547 153.66 134.17C153.411 134.656 153.141 135.116 152.871 135.589C152.322 136.522 151.731 137.429 151.108 138.298C150.444 138.745 149.77 139.167 149.085 139.589C148.048 140.215 146.99 140.803 145.911 141.365C145.735 141.455 145.548 141.557 145.372 141.646C145.061 141.8 144.739 141.953 144.428 142.106C143.972 142.324 143.505 142.541 143.038 142.745C142.001 143.205 140.953 143.627 139.885 144.023C139.501 144.164 139.128 144.304 138.744 144.432C137.271 144.943 135.757 145.391 134.222 145.787C133.039 146.17 131.836 146.426 130.622 146.579C127.822 147.116 124.907 147.461 121.899 147.602C121.411 147.627 120.913 147.653 120.416 147.666C118.58 146.822 116.806 145.736 115.146 144.432C114.949 144.279 114.752 144.126 114.555 143.959C110.977 140.994 107.906 136.969 105.687 131.997C104.286 128.879 103.322 125.595 102.772 122.285C102.751 122.157 102.73 122.029 102.71 121.901C102.647 121.492 102.585 121.083 102.533 120.674C101.33 111.205 103.405 101.505 108.197 94.0156C109.338 92.2136 110.645 90.5522 112.097 89.0314C112.698 88.4052 113.331 87.7918 113.985 87.2295C114.524 86.7566 115.074 86.3093 115.634 85.8876H115.644C115.831 85.747 116.028 85.6064 116.225 85.4658C116.381 85.3508 116.536 85.2486 116.692 85.1463C117.978 84.2773 119.295 83.5361 120.633 82.9354C121.567 82.5137 122.501 82.1558 123.455 81.8747C125.685 81.1846 127.956 80.8523 130.207 80.8523C134.18 80.8523 138.101 81.9002 141.7 83.8939C142.146 84.1367 142.603 84.4051 143.038 84.6863C143.215 84.8013 143.401 84.9163 143.578 85.0313C144.034 85.338 144.48 85.6448 144.916 85.9898C145.6 86.501 146.264 87.0633 146.907 87.6512C147.052 87.779 147.198 87.9196 147.353 88.0602C147.623 88.3158 147.882 88.5714 148.142 88.8397C148.328 89.0186 148.505 89.2103 148.681 89.402C148.971 89.7215 149.272 90.0538 149.552 90.3861L149.563 90.3989C150.289 91.2551 150.984 92.1625 151.637 93.121C151.824 93.3894 152 93.6705 152.177 93.9389C152.706 94.7696 153.203 95.6259 153.681 96.5204C153.722 96.5971 153.753 96.6738 153.795 96.7505C153.826 96.8016 153.847 96.8527 153.867 96.9038C153.961 97.07 154.044 97.2489 154.127 97.415C154.334 97.8368 154.541 98.2585 154.728 98.693C155.392 100.188 155.963 101.709 156.429 103.255V103.268C157.083 105.402 157.55 107.575 157.84 109.773C158.12 111.882 158.234 114.016 158.203 116.125L158.182 116.099Z" fill="#E2810E"/>
<path d="M155.651 122.566L155.641 122.617C155.33 124.828 154.853 126.988 154.21 129.071V129.084C154.033 129.646 153.847 130.208 153.65 130.758C153.204 131.997 152.706 133.199 152.146 134.362C151.969 134.732 151.793 135.09 151.606 135.448C151.585 135.499 151.554 135.55 151.534 135.589C150.797 136.982 149.978 138.323 149.075 139.589C148.038 140.215 146.98 140.803 145.901 141.365C145.725 141.454 145.538 141.557 145.362 141.646C145.051 141.8 144.729 141.953 144.418 142.106C143.962 142.324 143.495 142.541 143.028 142.745C141.991 143.205 140.943 143.627 139.875 144.023C139.491 144.164 139.118 144.304 138.734 144.432C137.261 144.943 135.746 145.391 134.211 145.787C133.029 146.17 131.826 146.426 130.612 146.579C127.811 147.116 124.897 147.461 121.889 147.602C121.401 147.627 120.903 147.653 120.405 147.666C119.679 147.691 118.953 147.704 118.206 147.704C117.325 147.704 116.433 147.691 115.53 147.666C110.614 144.649 106.371 139.819 103.519 133.454C101.942 129.927 100.915 126.208 100.407 122.451C100.376 122.234 100.345 122.016 100.324 121.799C100.283 121.48 100.251 121.16 100.22 120.841C99.2764 110.936 101.88 100.891 107.377 93.4915C108.653 91.779 110.085 90.2071 111.661 88.8013C111.858 88.6352 112.055 88.4563 112.252 88.2901C112.833 87.8045 113.425 87.3444 114.047 86.9099C114.203 86.7949 114.369 86.6798 114.524 86.5776C114.887 86.3348 115.25 86.1048 115.613 85.8747H115.624C115.81 85.7597 115.997 85.6575 116.173 85.5424C116.339 85.453 116.516 85.3507 116.682 85.2613C117.781 84.6606 118.891 84.1494 120.022 83.7405C120.125 83.7021 120.239 83.6638 120.343 83.6255C121.37 83.2676 122.397 82.9737 123.434 82.7564C123.984 82.6414 124.534 82.5519 125.094 82.4753C126.567 82.2836 128.04 82.2324 129.502 82.3347C131.857 82.488 134.191 83.012 136.431 83.8811C137.116 84.1494 137.79 84.4434 138.454 84.7756C138.63 84.8651 138.817 84.9546 138.993 85.0568C139.46 85.2996 139.916 85.5552 140.373 85.8364C141.275 86.3859 142.157 86.9866 143.007 87.6511C143.184 87.7917 143.37 87.9323 143.547 88.0856C144.418 88.8013 145.258 89.5681 146.067 90.4116L146.078 90.4244C146.223 90.5777 146.368 90.7183 146.503 90.8717C146.627 91.0122 146.762 91.1528 146.887 91.2934C146.938 91.3573 146.99 91.4084 147.042 91.4723C147.136 91.5746 147.229 91.6896 147.322 91.7918C147.851 92.4052 148.36 93.0442 148.847 93.7216C149.552 94.6801 150.216 95.7025 150.828 96.776L150.839 96.7887C150.859 96.8399 150.89 96.8782 150.911 96.9293C151.502 97.9645 152.052 99.0508 152.56 100.175C152.923 100.981 153.255 101.798 153.556 102.616C153.587 102.693 153.618 102.783 153.65 102.859C153.701 103 153.743 103.14 153.795 103.268V103.281C153.992 103.856 154.179 104.418 154.345 104.993C154.542 105.658 154.718 106.323 154.884 107C155.112 107.92 155.299 108.853 155.454 109.773C155.662 110.987 155.807 112.214 155.911 113.441C155.983 114.336 156.025 115.23 156.035 116.125C156.035 116.176 156.035 116.227 156.035 116.291C156.056 118.412 155.921 120.521 155.641 122.591L155.651 122.566Z" fill="#FFB93E"/>
<path d="M153.712 116.265C153.712 116.214 153.712 116.163 153.712 116.099C153.701 115.614 153.681 115.128 153.649 114.655C153.546 113.007 153.328 111.371 153.006 109.748C152.934 109.377 152.851 108.994 152.768 108.623C152.343 106.783 151.782 104.981 151.077 103.243V103.23C150.911 102.808 150.724 102.386 150.538 101.965C149.967 100.687 149.334 99.4854 148.64 98.3352C148.463 98.0413 148.287 97.7601 148.1 97.4662C147.965 97.2617 147.841 97.07 147.706 96.8783C147.675 96.8272 147.633 96.776 147.602 96.7249C147.509 96.5843 147.405 96.4438 147.312 96.316C147.218 96.1882 147.125 96.0604 147.032 95.9326C146.98 95.8559 146.928 95.792 146.876 95.7153C146.752 95.5492 146.627 95.383 146.492 95.2297C145.279 93.6705 143.93 92.2903 142.478 91.089C142.302 90.9356 142.115 90.7951 141.939 90.6545C141.825 90.565 141.711 90.4756 141.597 90.3989L141.586 90.3861C140.746 89.7599 139.885 89.1848 138.983 88.6608C138.806 88.5586 138.62 88.4563 138.443 88.3669C137.427 87.8173 136.369 87.3573 135.29 86.9611C132.915 86.1176 130.498 85.6959 128.102 85.7087C126.525 85.7087 124.959 85.9004 123.424 86.2582C122.604 86.4499 121.785 86.6927 120.976 86.9994C120.25 87.2678 119.534 87.5745 118.829 87.9196C117.833 88.4052 116.847 88.9803 115.893 89.6321C115.592 89.8366 115.302 90.041 115.012 90.2583C114.202 90.859 113.435 91.5107 112.688 92.2008C112.086 92.7632 111.516 93.351 110.966 93.9772C110.634 94.3479 110.302 94.744 109.991 95.1402C107.056 98.8081 104.898 103.345 103.705 108.431C102.761 112.47 102.481 116.61 102.844 120.662C102.886 121.083 102.927 121.505 102.979 121.927C102.99 122.042 103.01 122.157 103.021 122.285C103.488 125.774 104.442 129.173 105.863 132.355C108.01 137.161 111.08 141.11 114.773 143.921C115.022 144.113 115.26 144.292 115.52 144.471C117.262 145.697 119.14 146.682 121.121 147.384C121.37 147.474 121.629 147.563 121.889 147.64C124.907 147.487 127.811 147.142 130.612 146.618C127.604 146.988 124.534 146.656 121.546 145.582C120.665 145.263 119.804 144.892 118.963 144.471C118.621 144.304 118.289 144.113 117.968 143.921C113.425 141.288 109.67 136.982 107.201 131.448C105.884 128.509 105.002 125.377 104.556 122.17C104.546 122.106 104.535 122.055 104.535 121.991C104.473 121.518 104.411 121.032 104.369 120.547C104.006 116.7 104.276 112.776 105.168 108.955C106.195 104.572 107.989 100.623 110.406 97.3384C110.748 96.8783 111.101 96.431 111.464 95.9965C111.672 95.7537 111.879 95.5108 112.097 95.268C112.844 94.4373 113.642 93.6578 114.483 92.9293C115.177 92.3286 115.893 91.7791 116.64 91.2807C117.128 90.9484 117.625 90.6417 118.123 90.3478C119.057 89.811 120.021 89.3509 120.997 88.9675C121.806 88.648 122.625 88.3924 123.444 88.188C124.762 87.8557 126.089 87.664 127.438 87.6129C129.927 87.5106 132.438 87.9068 134.896 88.7758C136.109 89.2103 137.282 89.7471 138.412 90.3989L138.433 90.4117C139.678 91.1273 140.86 91.9708 141.98 92.9293C142.167 93.0827 142.343 93.2488 142.52 93.4022C143.619 94.4118 144.656 95.5364 145.6 96.7633C145.642 96.8144 145.683 96.8655 145.714 96.9166C146.129 97.4662 146.534 98.0285 146.918 98.6164C147.063 98.8464 147.208 99.0764 147.364 99.3192C147.633 99.7665 147.903 100.214 148.152 100.687C148.339 101.032 148.515 101.377 148.691 101.722C148.888 102.118 149.075 102.514 149.251 102.91C149.303 103.025 149.355 103.153 149.407 103.268V103.281C149.552 103.613 149.687 103.946 149.822 104.278C150.527 106.054 151.077 107.895 151.471 109.786C151.917 111.869 152.166 113.991 152.218 116.138C152.218 116.189 152.218 116.24 152.218 116.304C152.27 118.4 152.135 120.508 151.814 122.604L151.803 122.655C151.668 123.537 151.502 124.419 151.295 125.288C151.285 125.326 151.274 125.365 151.274 125.403C150.973 126.681 150.61 127.921 150.185 129.109V129.122C149.428 131.243 148.474 133.237 147.353 135.065C147.26 135.218 147.167 135.359 147.073 135.512C147.053 135.55 147.021 135.589 147.001 135.627C146.97 135.678 146.938 135.716 146.918 135.768C146.606 136.24 146.275 136.713 145.943 137.161C145.766 137.403 145.59 137.633 145.403 137.863C144.2 139.371 142.852 140.739 141.389 141.915C141.296 141.991 141.202 142.068 141.109 142.132C140.694 142.464 140.258 142.771 139.823 143.065C139.377 143.372 138.931 143.653 138.474 143.921C138.329 144.011 138.184 144.087 138.028 144.177C136.794 144.854 135.529 145.404 134.242 145.825C135.788 145.429 137.292 144.982 138.765 144.471C139.149 144.343 139.532 144.202 139.906 144.062C140.974 143.665 142.032 143.244 143.059 142.784C143.298 142.579 143.536 142.362 143.764 142.145C144.325 141.608 144.874 141.058 145.393 140.471C145.58 140.266 145.756 140.062 145.932 139.844C146.264 139.448 146.596 139.039 146.907 138.617C147.053 138.426 147.198 138.221 147.343 138.03C147.893 137.263 148.422 136.458 148.909 135.627C149.988 133.799 150.901 131.819 151.637 129.71C151.71 129.518 151.772 129.314 151.845 129.122V129.109C152.187 128.074 152.488 127.013 152.747 125.927C152.851 125.48 152.944 125.032 153.037 124.598C153.162 123.959 153.276 123.307 153.369 122.668L153.38 122.617C153.421 122.298 153.463 121.978 153.504 121.646C153.587 120.956 153.649 120.265 153.691 119.563C153.764 118.476 153.784 117.39 153.764 116.304L153.712 116.265Z" fill="#FFA412"/>
<path d="M141.088 122.617L141.078 122.566C140.985 121.774 140.808 120.968 140.528 120.151C140.476 119.984 140.414 119.818 140.352 119.652C139.947 118.553 139.45 117.646 138.869 116.917C138.796 116.828 138.723 116.738 138.651 116.662C138.547 116.547 138.443 116.432 138.329 116.317C138.309 116.291 138.288 116.278 138.267 116.253C138.215 116.202 138.153 116.15 138.101 116.087C137.468 115.499 136.763 115.039 135.975 114.706C134.958 114.272 133.828 114.016 132.573 113.914C131.328 113.824 129.959 113.799 128.496 113.85C127.583 113.888 126.805 113.863 126.162 113.786C125.519 113.709 124.969 113.569 124.523 113.339C124.077 113.122 123.714 112.815 123.424 112.419L123.393 112.38C123.362 112.342 123.331 112.291 123.31 112.253C123.206 112.099 123.113 111.933 123.03 111.767C122.916 111.537 122.822 111.294 122.729 111.026C122.542 110.476 122.438 109.914 122.418 109.364C122.387 108.815 122.459 108.304 122.615 107.805C122.77 107.32 123.019 106.872 123.372 106.476L123.393 106.45C123.756 106.029 124.233 105.684 124.824 105.377C125.654 104.955 126.453 104.866 127.2 105.096C127.438 105.172 127.666 105.275 127.884 105.403C128.828 105.978 129.606 107.166 130.197 108.968L135.902 106.118C135.539 105.032 135.114 104.061 134.626 103.217L134.616 103.204C134.429 102.885 134.232 102.578 134.025 102.297C133.278 101.262 132.438 100.457 131.494 99.8944C130.56 99.3321 129.533 98.9998 128.434 98.8976C127.334 98.7953 126.183 98.9487 124.99 99.3321L124.575 98.0541L124.129 96.6994L123.393 94.4757L123.372 94.4246L120.219 96.0093L120.945 98.2202L121.806 100.853C121.671 100.942 121.546 101.019 121.422 101.108C121.256 101.223 121.1 101.339 120.945 101.454C120.177 102.029 119.493 102.68 118.912 103.396C118.123 104.367 117.511 105.403 117.086 106.54C116.661 107.665 116.433 108.853 116.412 110.08C116.391 111.32 116.588 112.585 117.014 113.863C117.501 115.345 118.123 116.508 118.891 117.365C119.472 118.016 120.125 118.54 120.841 118.949C121.069 119.077 121.318 119.192 121.557 119.294C122.055 119.499 122.584 119.665 123.133 119.793C123.216 119.818 123.299 119.831 123.382 119.844C123.88 119.946 124.409 120.01 124.959 120.048C126.214 120.138 127.573 120.125 129.046 120.048C129.896 119.984 130.643 119.997 131.276 120.061C131.909 120.138 132.448 120.278 132.904 120.508C133.361 120.738 133.745 121.058 134.045 121.467C134.274 121.761 134.471 122.131 134.637 122.553L134.657 122.604C134.709 122.745 134.761 122.885 134.813 123.039C135 123.601 135.093 124.151 135.083 124.7C135.083 124.802 135.083 124.905 135.072 125.007C135.041 125.454 134.948 125.876 134.782 126.285C134.585 126.783 134.274 127.256 133.879 127.691C133.475 128.125 132.967 128.483 132.344 128.803C132.147 128.905 131.94 128.994 131.743 129.058L131.712 129.071C131.369 129.199 131.027 129.275 130.674 129.339C130.093 129.429 129.533 129.352 128.984 129.135C128.942 129.122 128.901 129.096 128.859 129.084L128.838 129.071C128.34 128.841 127.884 128.445 127.448 127.908C126.971 127.32 126.556 126.489 126.204 125.416L120.986 128.023L120.499 128.266C121.09 130.068 121.837 131.512 122.739 132.56C123.279 133.199 123.849 133.723 124.44 134.132C124.845 134.413 125.26 134.643 125.695 134.822C126.764 135.282 127.884 135.474 129.056 135.423C130.228 135.359 131.38 135.129 132.51 134.72L132.79 135.576L133.983 139.193L137.126 137.621L136.452 135.576L135.643 133.135C136.784 132.406 137.759 131.563 138.578 130.617C139.004 130.132 139.367 129.62 139.688 129.084L139.699 129.071C139.947 128.649 140.165 128.215 140.352 127.78C140.383 127.703 140.425 127.614 140.456 127.537C140.705 126.898 140.881 126.234 140.995 125.556C141.078 125.058 141.13 124.534 141.14 124.01C141.151 123.55 141.13 123.09 141.078 122.63L141.088 122.617Z" fill="#FFA412"/>
<path d="M59.9226 107.23C59.9226 105.812 60.8561 104.661 62.0075 104.661C63.1589 104.661 64.0924 105.812 64.0924 107.23C64.0924 108.649 63.1589 109.799 62.0075 109.799C60.8561 109.799 59.9226 108.649 59.9226 107.23Z" fill="#FFB93E"/>
<path d="M395.974 310.418H0.446022C0.197079 310.418 0 310.175 0 309.868V309.676C0 309.37 0.197079 309.127 0.446022 309.127H395.974C396.223 309.127 396.42 309.382 396.42 309.676V309.868C396.42 310.175 396.223 310.418 395.974 310.418Z" fill="#2E3552"/>
</svg>
