<?xml version="1.0" encoding="utf-8"?>
<svg width="32px" height="17px" viewBox="0 0 32 17" version="1.1" xmlns:xlink="http://www.w3.org/1999/xlink" xmlns="http://www.w3.org/2000/svg">
  <desc>Created with Lunacy</desc>
  <path d="M31.79 7.49243L24.52 0.252441C24.25 -0.0476074 23.8 -0.0876465 23.49 0.172363C23.1899 0.432373 23.1499 0.892334 23.4099 1.19238C23.4399 1.22241 23.46 1.25244 23.49 1.27246L29.52 7.28247L0.72998 7.28247C0.330078 7.28247 0 7.60254 0 8.00244C0 8.40234 0.330078 8.73242 0.72998 8.73242L29.52 8.73242L23.49 14.7324C23.1899 14.9924 23.1499 15.4424 23.4099 15.7524C23.6699 16.0525 24.1299 16.0925 24.4399 15.8325C24.47 15.8025 24.49 15.7825 24.52 15.7524L31.79 8.51245C32.0701 8.23242 32.0701 7.77246 31.79 7.49243L31.79 7.49243Z" id="Shape" fill="#FFFFFF" stroke="none" />
</svg>